<svg xmlns="http://www.w3.org/2000/svg" xmlns:xlink="http://www.w3.org/1999/xlink" version="1.1" x="0px" y="0px" viewBox="0 0 24 30" style="enable-background:new 0 0 24 24;" xml:space="preserve"><g><path d="M12,24c-0.172,0-0.333-0.089-0.424-0.234c-0.276-0.44-0.582-0.924-0.909-1.438C8.013,18.146,4,11.83,4,8   c0-4.411,3.589-8,8-8s8,3.589,8,8c0,3.83-4.014,10.146-6.667,14.328c-0.327,0.514-0.633,0.996-0.909,1.438   C12.333,23.911,12.172,24,12,24z M12,1C8.14,1,5,4.141,5,8c0,3.539,3.918,9.709,6.512,13.792c0.168,0.265,0.332,0.522,0.488,0.771   c0.156-0.248,0.32-0.506,0.488-0.771C15.082,17.709,19,11.539,19,8C19,4.141,15.859,1,12,1z"/><path d="M12,12c-2.206,0-4-1.794-4-4s1.794-4,4-4s4,1.794,4,4S14.206,12,12,12z M12,5c-1.654,0-3,1.346-3,3s1.346,3,3,3   c1.654,0,3-1.346,3-3S13.654,5,12,5z"/></g><text x="0" y="39" fill="#000000" font-size="5px" font-weight="bold" font-family="'Helvetica Neue', Helvetica, Arial-Unicode, Arial, Sans-serif">Created by Norbert Kucsera</text><text x="0" y="44" fill="#000000" font-size="5px" font-weight="bold" font-family="'Helvetica Neue', Helvetica, Arial-Unicode, Arial, Sans-serif">from the Noun Project</text></svg>