<?xml version="1.0" encoding="utf-8"?>
<!-- Generator: Adobe Illustrator 18.1.1, SVG Export Plug-In . SVG Version: 6.00 Build 0)  -->
<svg version="1.1" id="Layer_1" xmlns="http://www.w3.org/2000/svg" xmlns:xlink="http://www.w3.org/1999/xlink" x="0px" y="0px"
	 viewBox="-500 547.9 189.7 64.6" enable-background="new -500 547.9 189.7 64.6" xml:space="preserve">
<g>
	<defs>
		<rect id="SVGID_1_" x="-500" y="547.9" width="189.7" height="64.6"/>
	</defs>
	<clipPath id="SVGID_2_">
		<use xlink:href="#SVGID_1_"  overflow="visible"/>
	</clipPath>
	<rect x="-418.1" y="615.9" clip-path="url(#SVGID_2_)" width="25.8" height="3.2"/>
	<g clip-path="url(#SVGID_2_)">
		<path d="M-442.8,626.3c0,0.2-0.2,0.5-0.3,1c-0.1,0.5-0.3,1-0.4,1.6c-0.2,0.6-0.4,1.2-0.6,1.9c-0.2,0.7-0.4,1.3-0.6,2.1
			c-0.2,0.7-0.4,1.4-0.6,2.1c-0.2,0.6-0.3,1.2-0.5,1.8c-0.1,0.5-0.3,1-0.3,1.4c-0.1,0.3-0.1,0.6-0.1,0.7c0,0.1,0,0.2,0.1,0.3
			c0,0.1,0.1,0.1,0.2,0.2c0.1,0,0.2,0.1,0.3,0.1c0.1,0,0.2,0,0.2,0c0.2,0,0.4-0.1,0.6-0.2c0.2-0.1,0.4-0.3,0.5-0.4
			c0.2-0.1,0.3-0.3,0.4-0.3c0.1-0.1,0.1-0.2,0.2-0.2c0,0,0.1,0,0.1,0.1c0,0-0.1,0.2-0.3,0.4c-0.2,0.2-0.4,0.4-0.7,0.6
			c-0.3,0.2-0.6,0.4-0.9,0.6c-0.3,0.2-0.6,0.3-0.8,0.3c-0.3,0-0.5-0.1-0.8-0.3c-0.2-0.2-0.3-0.5-0.3-0.8c0-0.1,0-0.3,0.2-0.7
			c0.1-0.4,0.3-0.9,0.4-1.5c0.2-0.6,0.3-1.3,0.6-2.1c0.3-0.8,0.5-1.6,0.8-2.6c0.3-0.9,0.5-1.9,0.8-3c0.3-1,0.5-2,0.8-3L-442.8,626.3
			L-442.8,626.3z"/>
		<path d="M-441.7,630.7c0.2-0.1,0.4-0.3,0.5-0.5c0.2-0.2,0.4-0.3,0.5-0.5c0.2-0.2,0.3-0.4,0.4-0.7c0.1-0.2,0.1-0.5,0.1-0.8
			c0-0.2,0-0.4-0.2-0.5c-0.1-0.2-0.3-0.3-0.5-0.3v-0.1c0.2-0.2,0.4-0.4,0.5-0.5c0.2-0.1,0.4-0.2,0.7-0.2c0.2,0,0.3,0.1,0.5,0.3
			c0.2,0.2,0.2,0.4,0.2,0.6c0,0.4-0.1,0.8-0.3,1.1c-0.2,0.4-0.4,0.7-0.7,1c-0.3,0.3-0.6,0.5-0.9,0.8c-0.3,0.3-0.6,0.4-0.9,0.6
			L-441.7,630.7z"/>
		<path d="M-439,637.9c0,0.4,0.1,0.8,0.3,1.1c0.2,0.3,0.5,0.4,0.9,0.4c0.2,0,0.4,0,0.6-0.1c0.2-0.1,0.3-0.2,0.5-0.3
			c0.2-0.1,0.3-0.3,0.5-0.4c0.1-0.2,0.3-0.3,0.4-0.4c0,0,0.1-0.1,0.1-0.2c0,0,0.1-0.1,0.1-0.1c0.1,0,0.1,0,0.1,0.1
			c0,0.1-0.1,0.2-0.3,0.5c-0.2,0.3-0.5,0.5-0.8,0.8c-0.3,0.3-0.7,0.5-1.1,0.7c-0.4,0.2-0.8,0.3-1.2,0.3c-0.5,0-0.8-0.2-1.1-0.5
			c-0.3-0.3-0.4-0.7-0.4-1.2c0-0.4,0-0.8,0.2-1.3c0.1-0.5,0.3-0.9,0.5-1.4c0.2-0.4,0.5-0.8,0.8-1.3c0.3-0.4,0.6-0.8,0.9-1.1
			c0.3-0.3,0.7-0.5,1-0.7c0.3-0.2,0.6-0.3,0.9-0.3c0.5,0,0.8,0.3,0.8,0.9c0,0.4-0.1,0.8-0.4,1.1c-0.3,0.3-0.6,0.6-1,0.9
			c-0.4,0.3-0.8,0.4-1.2,0.6c-0.4,0.2-0.8,0.3-1,0.3c-0.1,0.2-0.2,0.5-0.3,0.8C-438.9,637.5-439,637.7-439,637.9 M-436.2,633.8
			c0-0.2-0.1-0.3-0.2-0.3c-0.1-0.1-0.2-0.1-0.4-0.1c-0.2,0-0.4,0.1-0.6,0.3c-0.2,0.2-0.4,0.5-0.5,0.8c-0.2,0.3-0.3,0.6-0.4,0.9
			c-0.1,0.3-0.2,0.6-0.3,0.8c0.2,0,0.4-0.1,0.7-0.3c0.3-0.2,0.5-0.3,0.7-0.5c0.3-0.2,0.5-0.4,0.6-0.7
			C-436.3,634.3-436.2,634.1-436.2,633.8 M-436.6,631.7l2.4-3.1c0,0,0.1-0.1,0.2-0.2c0,0,0.1,0,0.3,0c0.2,0,0.3,0,0.4,0.2
			c0.1,0.1,0.2,0.3,0.2,0.5c0,0.2-0.1,0.4-0.3,0.5c-0.2,0.2-0.4,0.3-0.7,0.6l-1.9,1.5L-436.6,631.7L-436.6,631.7z"/>
		<path d="M-429.7,626.3c-0.1,0.2-0.2,0.5-0.3,1c-0.1,0.5-0.3,1-0.5,1.6c-0.2,0.6-0.4,1.2-0.5,1.9c-0.2,0.7-0.4,1.3-0.6,2.1
			c-0.2,0.7-0.4,1.4-0.6,2.1c-0.2,0.6-0.4,1.2-0.5,1.8c-0.2,0.5-0.3,1-0.3,1.4c-0.1,0.3-0.1,0.6-0.1,0.7c0,0.1,0,0.2,0.1,0.3
			c0,0.1,0.1,0.1,0.2,0.2c0.1,0,0.2,0.1,0.3,0.1c0.1,0,0.2,0,0.3,0c0.2,0,0.4-0.1,0.6-0.2c0.2-0.1,0.3-0.3,0.5-0.4
			c0.2-0.1,0.3-0.3,0.4-0.3c0.1-0.1,0.2-0.2,0.2-0.2c0.1,0,0.1,0,0.1,0.1c0,0-0.1,0.2-0.3,0.4c-0.2,0.2-0.4,0.4-0.7,0.6
			c-0.3,0.2-0.5,0.4-0.8,0.6c-0.3,0.2-0.6,0.3-0.8,0.3c-0.3,0-0.5-0.1-0.8-0.3c-0.2-0.2-0.3-0.5-0.3-0.8c0-0.1,0-0.3,0.2-0.7
			c0.1-0.4,0.2-0.9,0.4-1.5c0.2-0.6,0.4-1.3,0.6-2.1c0.2-0.8,0.5-1.6,0.8-2.6c0.3-0.9,0.5-1.9,0.8-3c0.3-1,0.5-2,0.8-3L-429.7,626.3
			L-429.7,626.3z"/>
		<path d="M-429.4,637.9c0,0.4,0.1,0.8,0.3,1.1c0.2,0.3,0.5,0.4,0.8,0.4c0.3,0,0.5,0,0.7-0.1c0.2-0.1,0.3-0.2,0.5-0.3
			c0.2-0.1,0.3-0.3,0.5-0.4c0.1-0.2,0.3-0.3,0.4-0.4c0,0,0.1-0.1,0.1-0.2c0,0,0.1-0.1,0.1-0.1c0.1,0,0.1,0,0.1,0.1
			c0,0.1-0.1,0.2-0.3,0.5c-0.2,0.3-0.5,0.5-0.8,0.8c-0.3,0.3-0.7,0.5-1.1,0.7c-0.4,0.2-0.8,0.3-1.2,0.3c-0.5,0-0.8-0.2-1.1-0.5
			c-0.3-0.3-0.4-0.7-0.4-1.2c0-0.4,0-0.8,0.2-1.3c0.1-0.5,0.3-0.9,0.5-1.4c0.2-0.4,0.5-0.8,0.8-1.3c0.3-0.4,0.6-0.8,0.9-1.1
			c0.3-0.3,0.7-0.5,1-0.7c0.3-0.2,0.6-0.3,0.9-0.3c0.5,0,0.8,0.3,0.8,0.9c0,0.4-0.1,0.8-0.4,1.1c-0.3,0.3-0.6,0.6-1,0.9
			c-0.4,0.3-0.8,0.4-1.2,0.6c-0.4,0.2-0.8,0.3-1,0.3c-0.1,0.2-0.2,0.5-0.3,0.8C-429.4,637.5-429.4,637.7-429.4,637.9 M-426.7,633.8
			c0-0.2-0.1-0.3-0.2-0.3c-0.1-0.1-0.2-0.1-0.4-0.1c-0.2,0-0.4,0.1-0.6,0.3c-0.2,0.2-0.4,0.5-0.5,0.8c-0.2,0.3-0.3,0.6-0.4,0.9
			c-0.1,0.3-0.2,0.6-0.3,0.8c0.2,0,0.4-0.1,0.7-0.3c0.3-0.2,0.5-0.3,0.8-0.5c0.3-0.2,0.5-0.4,0.6-0.7
			C-426.8,634.3-426.7,634.1-426.7,633.8 M-427.1,631.7l2.4-3.1c0,0,0.1-0.1,0.2-0.2c0,0,0.1,0,0.3,0c0.1,0,0.3,0,0.4,0.2
			c0.1,0.1,0.2,0.3,0.2,0.5c0,0.2-0.1,0.4-0.3,0.5c-0.2,0.2-0.4,0.3-0.7,0.6l-1.9,1.5L-427.1,631.7L-427.1,631.7z"/>
		<path d="M-418.5,632.4c-0.2,0.7-0.5,1.5-0.7,2.3c-0.3,0.8-0.5,1.7-0.8,2.6c-0.3,0.9-0.5,1.7-0.8,2.5c-0.3,0.8-0.6,1.5-0.9,2.1
			c-0.3,0.4-0.5,0.7-0.8,1.1c-0.3,0.3-0.6,0.6-0.9,0.9c-0.3,0.2-0.7,0.4-1.1,0.5c-0.4,0.2-0.8,0.2-1.2,0.2c-0.1,0-0.3,0-0.5,0
			c-0.2-0.1-0.3-0.1-0.4-0.3c-0.1-0.1-0.3-0.2-0.3-0.4c-0.1-0.1-0.1-0.3-0.1-0.5c0-0.3,0-0.5,0.2-0.7c0.1-0.2,0.3-0.3,0.5-0.3
			c0.3,0,0.4,0,0.6,0.2c0.2,0.1,0.3,0.4,0.3,0.7c0,0.1,0,0.2,0,0.3c0,0.1,0,0.3,0,0.3c0,0.1,0.1,0.1,0.3,0.2c0.1,0,0.2,0,0.3,0
			c0.3,0,0.7-0.1,1-0.4c0.3-0.3,0.5-0.5,0.8-1c0.3-0.4,0.5-0.8,0.7-1.3c0.2-0.5,0.4-1,0.6-1.5c0.2-0.5,0.3-1,0.5-1.4
			c0.1-0.5,0.3-0.8,0.3-1.1h0c-0.1,0.3-0.3,0.6-0.5,0.9c-0.2,0.3-0.5,0.6-0.8,0.9c-0.3,0.3-0.5,0.5-0.8,0.7
			c-0.3,0.2-0.6,0.3-0.9,0.3c-0.4,0-0.6-0.2-0.8-0.4c-0.2-0.3-0.3-0.6-0.3-1c0-0.5,0-1,0.2-1.4c0.2-0.5,0.3-1,0.6-1.4
			c0.3-0.5,0.5-0.9,0.8-1.3c0.3-0.4,0.7-0.8,1-1.1c0.3-0.3,0.7-0.5,1.1-0.7c0.3-0.2,0.6-0.3,0.9-0.3c0.2,0,0.3,0,0.5,0.1
			c0.1,0.1,0.3,0.1,0.4,0.2L-418.5,632.4z M-423.9,638.4c0,0.3,0.1,0.5,0.2,0.8c0.1,0.2,0.3,0.3,0.6,0.3c0.2,0,0.4-0.1,0.6-0.2
			c0.2-0.2,0.4-0.4,0.6-0.6c0.2-0.3,0.3-0.5,0.5-0.8c0.2-0.3,0.3-0.5,0.3-0.7c0.1-0.2,0.2-0.3,0.3-0.6c0.1-0.3,0.2-0.6,0.3-0.9
			c0.1-0.3,0.2-0.6,0.3-0.9c0.1-0.3,0.1-0.5,0.1-0.6s0-0.2-0.1-0.3c-0.1-0.1-0.2-0.2-0.3-0.3c-0.1,0-0.3-0.1-0.4-0.1
			c-0.1,0-0.3,0-0.4,0c-0.3,0-0.6,0.2-0.9,0.6c-0.3,0.4-0.5,0.9-0.8,1.4c-0.2,0.5-0.4,1.1-0.5,1.7
			C-423.8,637.6-423.9,638.1-423.9,638.4"/>
		<path d="M-411.7,632.7c-0.1,0.2-0.2,0.4-0.3,0.8c-0.1,0.3-0.3,0.8-0.4,1.2c-0.2,0.4-0.3,0.9-0.4,1.3c-0.2,0.5-0.3,0.9-0.4,1.3
			c-0.1,0.4-0.2,0.7-0.3,1c-0.1,0.3-0.1,0.5-0.1,0.5c0,0.2,0.1,0.3,0.3,0.4c0.1,0.1,0.3,0.1,0.4,0.1c0.2,0,0.3,0,0.5-0.2
			c0.2-0.1,0.3-0.2,0.4-0.3c0.1-0.1,0.3-0.3,0.3-0.4c0.1-0.1,0.2-0.1,0.2-0.1c0.1,0,0.1,0,0.1,0c0,0-0.1,0.2-0.2,0.4
			c-0.2,0.2-0.4,0.4-0.6,0.6c-0.3,0.2-0.5,0.4-0.8,0.5c-0.3,0.2-0.6,0.3-1,0.3c-0.2,0-0.4-0.1-0.6-0.2c-0.2-0.1-0.3-0.3-0.3-0.6
			c0-0.1,0-0.3,0.1-0.5c0.1-0.2,0.2-0.4,0.3-0.6c0.1-0.2,0.2-0.4,0.3-0.6c0.1-0.2,0.1-0.4,0.2-0.5v0c-0.2,0.3-0.4,0.6-0.6,0.9
			c-0.3,0.4-0.5,0.7-0.8,1c-0.3,0.3-0.6,0.5-1,0.8c-0.3,0.2-0.6,0.3-0.9,0.3c-0.2,0-0.3-0.1-0.5-0.2c-0.1-0.1-0.2-0.2-0.3-0.3
			c-0.1-0.2-0.1-0.3-0.2-0.5c0-0.2,0-0.4,0-0.5c0-0.5,0.1-1,0.3-1.5c0.2-0.5,0.4-1,0.7-1.4c0.3-0.4,0.6-0.9,0.9-1.3
			c0.3-0.4,0.7-0.8,1.1-1.1c0.3-0.3,0.7-0.5,1-0.7c0.3-0.2,0.6-0.3,0.8-0.3c0.2,0,0.3,0.1,0.5,0.2c0.2,0.2,0.3,0.3,0.3,0.5
			c0.1-0.3,0.2-0.5,0.2-0.6L-411.7,632.7L-411.7,632.7z M-417.2,638.5c0,0.3,0,0.5,0.2,0.6c0.1,0.2,0.3,0.3,0.5,0.3
			c0.2,0,0.5-0.1,0.7-0.3c0.2-0.2,0.5-0.4,0.7-0.7c0.2-0.3,0.4-0.5,0.5-0.8c0.2-0.3,0.3-0.5,0.4-0.8c0-0.1,0.1-0.3,0.2-0.5
			c0.1-0.2,0.2-0.5,0.3-0.7c0.1-0.3,0.2-0.5,0.3-0.7c0-0.2,0.1-0.3,0.1-0.4c0-0.1,0-0.3-0.1-0.4c0-0.1-0.2-0.3-0.3-0.4
			c-0.1-0.1-0.2-0.2-0.4-0.2c-0.1-0.1-0.3-0.1-0.3-0.1c-0.2,0-0.3,0-0.3,0c-0.1,0-0.2,0-0.3,0.1c0,0.1-0.1,0.2-0.2,0.3
			c0,0.1-0.1,0.2-0.2,0.3c-0.2,0.3-0.4,0.6-0.6,1c-0.2,0.4-0.4,0.8-0.5,1.1c-0.2,0.4-0.3,0.8-0.4,1.2
			C-417.1,637.8-417.2,638.1-417.2,638.5"/>
		<path d="M-407.7,632.8l-1.1,3.7l0,0c0.1-0.4,0.3-0.8,0.6-1.2c0.3-0.4,0.5-0.9,0.8-1.3c0.3-0.4,0.6-0.8,1-1.1
			c0.4-0.3,0.7-0.4,1.1-0.4c0.1,0,0.3,0,0.4,0.1c0.1,0,0.3,0.1,0.4,0.2c0.1,0.1,0.2,0.2,0.3,0.3c0.1,0.2,0.1,0.3,0.1,0.5
			c0,0.2,0,0.4-0.1,0.7c-0.1,0.3-0.2,0.6-0.3,0.9c-0.1,0.3-0.3,0.7-0.4,1.1c-0.1,0.4-0.3,0.7-0.4,1.1c-0.1,0.3-0.2,0.6-0.3,0.9
			c-0.1,0.3-0.1,0.5-0.1,0.6c0,0.2,0,0.3,0.1,0.4c0.1,0.1,0.3,0.2,0.4,0.2c0.2,0,0.3,0,0.4-0.1c0.1-0.1,0.3-0.1,0.4-0.2
			c0.1-0.1,0.2-0.2,0.3-0.3c0.1-0.1,0.1-0.1,0.2-0.1c0,0,0,0,0.1,0c0,0,0,0,0,0.1c0,0-0.1,0.1-0.3,0.3c-0.1,0.1-0.3,0.3-0.5,0.4
			c-0.2,0.2-0.5,0.3-0.7,0.4c-0.3,0.1-0.5,0.2-0.7,0.2c-0.3,0-0.5-0.1-0.7-0.2c-0.2-0.1-0.3-0.4-0.3-0.7c0-0.1,0-0.3,0.1-0.6
			c0.1-0.3,0.2-0.5,0.3-0.9c0.1-0.3,0.3-0.7,0.4-1.1c0.1-0.3,0.3-0.7,0.4-1c0.1-0.3,0.2-0.6,0.3-0.9c0.1-0.3,0.1-0.5,0.1-0.6
			c0-0.4-0.2-0.7-0.5-0.7c-0.3,0-0.5,0.1-0.8,0.3c-0.3,0.3-0.5,0.6-0.8,0.9c-0.3,0.4-0.5,0.8-0.7,1.3c-0.3,0.5-0.5,0.9-0.7,1.4
			c-0.2,0.5-0.4,1-0.5,1.4c-0.2,0.5-0.3,0.9-0.4,1.3h-1.1c0.3-1.2,0.7-2.4,1-3.6c0.4-1.2,0.7-2.4,1.1-3.6L-407.7,632.8L-407.7,632.8
			z"/>
		<path d="M-401.8,638c0,0.5,0.1,0.9,0.3,1.1c0.2,0.3,0.5,0.4,0.9,0.4c0.2,0,0.4,0,0.6-0.2c0.2-0.1,0.4-0.3,0.6-0.5
			c0.2-0.2,0.3-0.3,0.4-0.5c0.1-0.2,0.2-0.2,0.2-0.2c0,0,0,0,0.1,0s0,0,0,0.1c0,0.1-0.1,0.2-0.3,0.5c-0.2,0.2-0.4,0.4-0.7,0.7
			c-0.3,0.2-0.6,0.4-0.9,0.6c-0.3,0.2-0.6,0.3-1,0.3c-0.5,0-0.9-0.2-1.2-0.6c-0.3-0.4-0.4-0.9-0.4-1.5c0-0.6,0.1-1.2,0.4-1.9
			c0.3-0.6,0.6-1.3,1.1-1.8c0.4-0.6,0.9-1.1,1.4-1.4c0.5-0.3,1-0.5,1.5-0.5c0.3,0,0.5,0.1,0.7,0.4c0.2,0.2,0.3,0.5,0.3,0.8
			c0,0.3,0,0.5-0.1,0.8c-0.1,0.3-0.3,0.3-0.6,0.3c-0.2,0-0.3,0-0.4-0.1c-0.1-0.1-0.2-0.3-0.2-0.5c0-0.1,0-0.2,0.1-0.3
			s0.1-0.1,0.2-0.2c0-0.2-0.2-0.4-0.3-0.5c-0.2-0.1-0.3-0.1-0.5-0.1c-0.2,0-0.4,0.1-0.5,0.3c-0.2,0.2-0.3,0.4-0.5,0.7
			c-0.1,0.3-0.3,0.6-0.4,1c-0.1,0.3-0.3,0.7-0.3,1.1c-0.1,0.3-0.1,0.7-0.2,1C-401.8,637.5-401.8,637.8-401.8,638"/>
		<path d="M-396.7,637.9c0,0.4,0.1,0.8,0.3,1.1c0.2,0.3,0.5,0.4,0.9,0.4c0.2,0,0.4,0,0.6-0.1c0.2-0.1,0.4-0.2,0.5-0.3
			c0.2-0.1,0.3-0.3,0.5-0.4c0.1-0.2,0.3-0.3,0.4-0.4c0,0,0.1-0.1,0.1-0.2c0,0,0-0.1,0-0.1c0.1,0,0.1,0,0.1,0.1
			c0,0.1-0.1,0.2-0.3,0.5c-0.2,0.3-0.4,0.5-0.8,0.8c-0.3,0.3-0.6,0.5-1.1,0.7c-0.4,0.2-0.8,0.3-1.2,0.3c-0.5,0-0.8-0.2-1.1-0.5
			c-0.3-0.3-0.4-0.7-0.4-1.2c0-0.4,0.1-0.8,0.2-1.3c0.1-0.5,0.3-0.9,0.5-1.4c0.3-0.4,0.5-0.8,0.8-1.3c0.3-0.4,0.6-0.8,1-1.1
			c0.3-0.3,0.6-0.5,1-0.7c0.3-0.2,0.6-0.3,0.9-0.3c0.5,0,0.8,0.3,0.8,0.9c0,0.4-0.1,0.8-0.4,1.1c-0.3,0.3-0.6,0.6-1,0.9
			c-0.4,0.3-0.8,0.4-1.2,0.6c-0.4,0.2-0.8,0.3-1,0.3c-0.1,0.2-0.2,0.5-0.2,0.8C-396.7,637.5-396.7,637.7-396.7,637.9 M-394,633.8
			c0-0.2,0-0.3-0.2-0.3c-0.1-0.1-0.2-0.1-0.3-0.1c-0.2,0-0.4,0.1-0.6,0.3c-0.2,0.2-0.3,0.5-0.5,0.8c-0.2,0.3-0.3,0.6-0.4,0.9
			c-0.1,0.3-0.2,0.6-0.2,0.8c0.2,0,0.4-0.1,0.7-0.3c0.3-0.2,0.5-0.3,0.8-0.5c0.2-0.2,0.4-0.4,0.6-0.7C-394,634.3-394,634-394,633.8"
			/>
		<path d="M-383.7,626.3c0,0.2-0.2,0.5-0.3,1c-0.1,0.5-0.3,1-0.5,1.6c-0.2,0.6-0.3,1.2-0.5,1.9c-0.2,0.7-0.4,1.3-0.6,2.1
			c-0.2,0.7-0.4,1.4-0.6,2.1c-0.2,0.6-0.3,1.2-0.5,1.8c-0.1,0.5-0.3,1-0.3,1.4c-0.1,0.3-0.1,0.6-0.1,0.7c0,0.1,0,0.2,0.1,0.3
			c0,0.1,0.1,0.1,0.2,0.2c0.1,0,0.2,0.1,0.3,0.1c0.1,0,0.2,0,0.2,0c0.2,0,0.4-0.1,0.6-0.2c0.2-0.1,0.4-0.3,0.5-0.4
			c0.2-0.1,0.3-0.3,0.4-0.3c0.1-0.1,0.1-0.2,0.2-0.2c0,0,0,0,0,0.1c0,0-0.1,0.2-0.3,0.4c-0.2,0.2-0.4,0.4-0.7,0.6
			c-0.3,0.2-0.6,0.4-0.9,0.6c-0.3,0.2-0.6,0.3-0.8,0.3c-0.3,0-0.5-0.1-0.8-0.3c-0.2-0.2-0.3-0.5-0.3-0.8c0-0.1,0-0.3,0.2-0.7
			c0.1-0.4,0.3-0.9,0.4-1.5c0.2-0.6,0.3-1.3,0.6-2.1c0.3-0.8,0.5-1.6,0.8-2.6c0.3-0.9,0.5-1.9,0.8-3c0.3-1,0.5-2,0.8-3L-383.7,626.3
			L-383.7,626.3z"/>
		<path d="M-381.1,632.5c-0.1,0.4-0.2,0.8-0.4,1.4c-0.2,0.5-0.4,1.2-0.6,1.8c-0.2,0.6-0.4,1.2-0.5,1.7c-0.2,0.5-0.3,1-0.3,1.3
			c0,0.2,0.1,0.4,0.2,0.5c0.2,0.1,0.3,0.2,0.5,0.2c0.2,0,0.4-0.1,0.6-0.3c0.2-0.1,0.4-0.3,0.5-0.5c0.2-0.2,0.3-0.3,0.4-0.5
			c0.1-0.1,0.2-0.2,0.2-0.2c0.1,0,0.1,0,0.1,0.1c0,0-0.1,0.2-0.3,0.4c-0.2,0.3-0.4,0.5-0.6,0.7c-0.3,0.3-0.5,0.5-0.8,0.7
			c-0.3,0.2-0.6,0.3-0.9,0.3c-0.1,0-0.3,0-0.4-0.1c-0.1,0-0.3-0.1-0.4-0.2c-0.1-0.1-0.2-0.2-0.3-0.4c-0.1-0.1-0.1-0.3-0.1-0.5
			c0-0.1,0-0.3,0.2-0.6c0.1-0.3,0.2-0.8,0.4-1.4c0.2-0.5,0.4-1.2,0.6-2c0.2-0.8,0.5-1.6,0.8-2.6L-381.1,632.5L-381.1,632.5z
			 M-380.4,627.2c0.2,0,0.4,0,0.5,0.2c0.1,0.1,0.2,0.3,0.2,0.6c0,0.3-0.1,0.5-0.2,0.8c-0.2,0.2-0.3,0.3-0.5,0.3
			c-0.3,0-0.4-0.1-0.5-0.2c-0.1-0.1-0.2-0.3-0.2-0.6c0-0.3,0.1-0.5,0.3-0.8C-380.9,627.3-380.7,627.2-380.4,627.2"/>
		<path d="M-375.2,626.3c-0.2,0.7-0.5,1.4-0.7,2.2c-0.2,0.8-0.5,1.5-0.7,2.3c-0.3,0.8-0.5,1.5-0.7,2.1c-0.2,0.7-0.4,1.3-0.7,1.9l0,0
			c0.2-0.3,0.3-0.5,0.5-0.8c0.2-0.3,0.5-0.5,0.7-0.8c0.3-0.3,0.5-0.5,0.8-0.6c0.3-0.2,0.5-0.3,0.8-0.3c0.3,0,0.6,0.1,0.8,0.4
			c0.2,0.2,0.3,0.5,0.3,1c0,0.4-0.1,0.9-0.2,1.4c-0.2,0.5-0.4,1-0.6,1.4c-0.3,0.5-0.5,0.9-0.9,1.3c-0.3,0.4-0.7,0.8-1.1,1.1
			c-0.3,0.3-0.8,0.6-1.1,0.8c-0.4,0.2-0.8,0.3-1.1,0.3c-0.2,0-0.4-0.1-0.5-0.2c-0.2-0.1-0.3-0.3-0.4-0.4c-0.1-0.2-0.2-0.3-0.2-0.5
			c-0.1-0.1-0.1-0.3-0.1-0.3c0,0,0-0.1,0.1-0.3c0-0.2,0.1-0.4,0.2-0.6c0.1-0.3,0.2-0.6,0.3-0.9c0.1-0.4,0.3-0.8,0.3-1.1
			c0-0.2,0.2-0.5,0.3-1.1c0.2-0.6,0.4-1.3,0.7-2.2c0.3-0.8,0.6-1.9,0.9-2.9c0.3-1.1,0.7-2.2,1.1-3.4L-375.2,626.3L-375.2,626.3z
			 M-379,638.8c0,0.1,0,0.3,0.1,0.3c0,0.1,0.1,0.2,0.2,0.3c0.1,0.1,0.2,0.1,0.3,0.2c0.1,0,0.2,0.1,0.3,0.1c0.2,0,0.4-0.1,0.7-0.3
			c0.2-0.2,0.4-0.5,0.6-0.8c0.2-0.3,0.4-0.7,0.5-1.1c0.2-0.4,0.3-0.8,0.4-1.2c0.1-0.4,0.3-0.8,0.3-1.1c0.1-0.3,0.1-0.6,0.1-0.9
			c0-0.2,0-0.4-0.2-0.6c-0.1-0.2-0.3-0.3-0.4-0.3c-0.3,0-0.5,0.1-0.8,0.3c-0.3,0.2-0.5,0.5-0.7,0.8c-0.2,0.3-0.4,0.7-0.6,1.1
			c-0.2,0.4-0.4,0.8-0.5,1.2c-0.1,0.4-0.3,0.8-0.3,1.2C-379,638.3-379,638.6-379,638.8"/>
		<path d="M-371.5,632.8h1.2l-0.9,2.8l0,0c0.1-0.3,0.3-0.6,0.4-0.9c0.2-0.3,0.4-0.7,0.6-1c0.2-0.3,0.5-0.6,0.7-0.8
			c0.3-0.2,0.5-0.3,0.8-0.3c0.3,0,0.5,0.1,0.7,0.3c0.2,0.2,0.3,0.5,0.3,0.9c0,0.1,0,0.3,0,0.4c0,0.1,0,0.3-0.1,0.4
			c-0.1,0.1-0.1,0.2-0.3,0.3c-0.1,0.1-0.2,0.1-0.3,0.1c-0.2,0-0.3-0.1-0.5-0.2c-0.1-0.1-0.2-0.3-0.2-0.5c0-0.1,0-0.2,0.1-0.3
			c0-0.1,0.1-0.2,0.1-0.3c-0.1-0.1-0.2-0.2-0.3-0.2c-0.1,0-0.3,0-0.3,0c-0.2,0-0.5,0.1-0.7,0.4c-0.2,0.3-0.4,0.6-0.6,1
			c-0.2,0.4-0.4,0.8-0.6,1.3c-0.2,0.5-0.4,1-0.5,1.5c-0.2,0.5-0.3,0.9-0.4,1.3c-0.1,0.4-0.2,0.7-0.2,0.9h-1.1L-371.5,632.8z"/>
		<path d="M-366.7,637.9c0,0.4,0.1,0.8,0.3,1.1c0.2,0.3,0.5,0.4,0.9,0.4c0.2,0,0.4,0,0.6-0.1c0.2-0.1,0.3-0.2,0.5-0.3
			c0.2-0.1,0.3-0.3,0.5-0.4c0.1-0.2,0.3-0.3,0.4-0.4c0.1,0,0.1-0.1,0.1-0.2c0,0,0.1-0.1,0.1-0.1c0.1,0,0.1,0,0.1,0.1
			c0,0.1-0.1,0.2-0.3,0.5c-0.2,0.3-0.4,0.5-0.8,0.8c-0.3,0.3-0.7,0.5-1.1,0.7c-0.4,0.2-0.8,0.3-1.2,0.3c-0.5,0-0.8-0.2-1.1-0.5
			c-0.3-0.3-0.4-0.7-0.4-1.2c0-0.4,0.1-0.8,0.2-1.3c0.1-0.5,0.3-0.9,0.6-1.4c0.3-0.4,0.5-0.8,0.8-1.3c0.3-0.4,0.6-0.8,0.9-1.1
			c0.3-0.3,0.7-0.5,1-0.7c0.3-0.2,0.6-0.3,0.9-0.3c0.5,0,0.8,0.3,0.8,0.9c0,0.4-0.1,0.8-0.4,1.1c-0.3,0.3-0.6,0.6-1,0.9
			c-0.4,0.3-0.8,0.4-1.2,0.6c-0.4,0.2-0.8,0.3-1,0.3c-0.1,0.2-0.2,0.5-0.2,0.8C-366.7,637.5-366.7,637.7-366.7,637.9 M-364,633.8
			c0-0.2-0.1-0.3-0.2-0.3c-0.1-0.1-0.2-0.1-0.3-0.1c-0.2,0-0.4,0.1-0.6,0.3c-0.2,0.2-0.3,0.5-0.5,0.8c-0.2,0.3-0.3,0.6-0.4,0.9
			c-0.1,0.3-0.2,0.6-0.3,0.8c0.2,0,0.4-0.1,0.7-0.3c0.3-0.2,0.5-0.3,0.7-0.5c0.3-0.2,0.5-0.4,0.6-0.7
			C-364.1,634.3-364,634-364,633.8"/>
	</g>
	<g clip-path="url(#SVGID_2_)">
		<path d="M-468.9,596.5c-0.7-0.7-1.1-1.1-1.3-1.3l-3-3c-1.7-1.7-4-4.2-6.8-7.5c-2.8-3.3-5.1-6-6.7-8.3c-1.3-1.8-2.4-2.7-3.3-2.7
			c-1.4,0-2.8,1-4.2,3c-1.4,2-2.1,4.4-2.1,7.3c0,3.5,1.2,7,3.7,10.2c3.4,4.4,7.7,6.6,12.9,6.6C-475.4,600.9-471.8,599.4-468.9,596.5
			 M-463.8,593.7c6.3,6.2,10.9,9.2,13.7,9.2c1.9,0,2.1-0.5,2.4-0.6c0.3,0-1.2,3.2-5.9,3.2c-2.1,0-4-0.5-5.8-1.4
			c-1.7-0.9-4.3-2.9-7.5-5.8c-4.7,4.8-9.6,7.2-14.8,7.2c-5.3,0-9.7-1.7-13.1-5.2c-3.5-3.5-5.2-7.8-5.2-13.2c0-4.4,1.3-8.1,4-11.1
			c1.4-1.7,3.5-3,6.2-3.7c-1.9-2.8-2.8-5.6-2.8-8.3c0-2.9,0.9-5.2,2.8-7c1.9-1.8,4.4-2.7,7.5-2.7c1.6,0,3.2,0.4,4.9,1.1
			c0,0,1.6,0.7,1.9,0.8c0.2,0.1,0.2,0.3,0.2,0.3l1.4,7.9c0,0,0,0.3-0.1,0.1c-0.6-1.1-2.6-4.5-4.1-5.8c-1.9-1.6-3.6-2.3-5.4-2.3
			c-1.5,0-2.8,0.5-3.8,1.6c-1.1,1.1-1.6,2.3-1.6,3.8c0,1.4,0.5,3,1.5,4.8c1,1.8,2.7,4,5.1,6.9l8,9.5c2.1,2.5,5,5.6,8.9,9.3
			c1-2.1,1.6-4.5,1.6-7.1c0-1.9-0.4-3.5-1-4.8c-1.6-3.5-5.1-3.3-5.1-3.3s0.1-0.8,0.8-0.8c0.2,0,0.4,0,0.8,0.1
			c0.6,0.1,2.5,0.1,5.6,0.1c1,0,1.9,0,2.7-0.1c0.8-0.1,1.3-0.1,1.6-0.1c0.4,0,0.6,0.6,0.6,0.6s-1.9,0.3-2.3,2.4
			c-0.1,0.7-0.5,1.9-0.6,3.8C-461.4,587-462.3,590.6-463.8,593.7"/>
		<path d="M-346.5,571.3h2.6v-20.4l18.2,20.4h2.8v-22.8h-2.8v18.8l-16.9-18.8h-3.9V571.3z M-378.3,571.3h2.6v-20.4l18.3,20.4h2.7
			v-22.8h-2.7v18.8l-16.9-18.8h-3.9V571.3z M-410.8,571.3h3.1l3-5.9h14.7l3,5.9h3.1l-11.7-22.8h-3.4L-410.8,571.3z M-403.5,562.9
			l6.1-12.3l6.1,12.3H-403.5z M-436.6,571.3h2.7l5.6-18.6h0l5.6,18.6h2.7l7.1-22.8h-2.9l-5.4,18.4h-0.1l-5.6-18.4h-2.6l-5.6,18.5
			h-0.1l-5.4-18.5h-2.9L-436.6,571.3z M-471.3,566.6c1.9,2.1,4.7,5.3,12.1,5.3c7.8,0,11.5-3.2,11.5-7c0-10.2-19.9-3.6-19.9-10.5
			c0-2.9,3.2-4,7.8-4c6.2,0,8.4,2.9,9.4,4l2-1.6c-1.6-2.2-5.3-4.6-11.3-4.6c-6.2,0-10.7,1.9-10.7,6.8c0,9.2,19.9,3.2,19.9,10.1
			c0,3.5-4.8,4.6-8.3,4.6c-6.8,0-9-2.9-10.4-4.6L-471.3,566.6z"/>
		<path d="M-332.8,599.1h2.8V589h8.9l7.3,10.1h3.5l-7.6-10.2c2.8-0.1,7.2-1.5,7.2-6.3c0-5.6-5.3-6.3-8.9-6.3h-13.2V599.1z
			 M-330.1,578.8h9.8c4,0,6.9,0.5,6.9,3.9c0,3.3-3,3.9-6.9,3.9h-9.8V578.8z M-365.3,599.1h3.1l3-5.9h14.7l3,5.9h3.1l-11.7-22.8h-3.4
			L-365.3,599.1z M-358,590.7l6.1-12.3l6.1,12.3H-358z M-371.7,591.8c-1.9,3.5-5,5.4-9.5,5.4c-6.9,0-10.5-3.9-10.5-9.1
			c0-6.5,3.7-10,10.2-10c4.3,0,7.9,1.6,9.5,5.3l2.4-1.1c-2.1-4.6-7-6.5-11.9-6.5c-7.7,0-13,4.2-13,12c0,6.6,4.2,11.9,13,11.9
			c5.6,0,9.8-1.9,12.2-6.6L-371.7,591.8z M-423.1,594.4c1.9,2.2,4.7,5.3,12.1,5.3c7.8,0,11.5-3.2,11.5-7c0-10.2-19.9-3.7-19.9-10.5
			c0-2.9,3.2-4.1,7.8-4.1c6.2,0,8.4,2.9,9.3,4l2-1.6c-1.6-2.2-5.3-4.7-11.3-4.7c-6.2,0-10.7,2-10.7,6.8c0,9.3,19.9,3.2,19.9,10.1
			c0,3.5-4.8,4.6-8.3,4.6c-6.8,0-9-2.9-10.4-4.7L-423.1,594.4z M-451.7,587.3c0-5.1,3.9-9.3,10.5-9.3c6.6,0,10.5,4.2,10.5,9.3
			c0,7-5,9.9-10.5,9.9C-446.8,597.2-451.7,594.3-451.7,587.3 M-454.5,587.8c0,8.1,6.8,11.8,13.4,11.8s13.3-3.8,13.3-11.8
			c0-7.6-5.6-12.1-13.3-12.1C-448.9,575.7-454.5,580.2-454.5,587.8"/>
	</g>
</g>
</svg>
