<?xml version="1.0" encoding="utf-8"?>
<!-- Generator: Adobe Illustrator 16.0.0, SVG Export Plug-In . SVG Version: 6.00 Build 0)  -->
<!DOCTYPE svg PUBLIC "-//W3C//DTD SVG 1.1//EN" "http://www.w3.org/Graphics/SVG/1.1/DTD/svg11.dtd">
<svg version="1.1" id="Layer_1" xmlns="http://www.w3.org/2000/svg" xmlns:xlink="http://www.w3.org/1999/xlink" x="0px" y="0px"
	 width="189.662px" height="96.603px" viewBox="0 0 189.662 96.603" enable-background="new 0 0 189.662 96.603"
	 xml:space="preserve">
<rect x="81.892" y="67.942" width="25.837" height="3.161"/>
<g>
	<path d="M57.193,78.351c-0.042,0.213-0.168,0.55-0.294,0.971c-0.127,0.464-0.253,1.012-0.422,1.603
		c-0.21,0.588-0.379,1.222-0.59,1.938c-0.211,0.675-0.422,1.349-0.632,2.064c-0.168,0.717-0.379,1.392-0.591,2.065
		c-0.168,0.632-0.337,1.223-0.505,1.77c-0.127,0.548-0.252,1.012-0.337,1.392c-0.083,0.338-0.126,0.589-0.126,0.715
		c0,0.086,0.043,0.211,0.085,0.254c0.042,0.083,0.126,0.127,0.21,0.17c0.085,0.04,0.169,0.083,0.254,0.083
		c0.083,0,0.168,0.041,0.21,0.041c0.21,0,0.379-0.084,0.59-0.167c0.21-0.127,0.379-0.254,0.506-0.381
		c0.168-0.126,0.294-0.251,0.421-0.337c0.085-0.127,0.126-0.168,0.168-0.168s0.085,0.041,0.085,0.084
		c0,0.044-0.127,0.17-0.295,0.381c-0.168,0.21-0.422,0.421-0.674,0.631c-0.295,0.211-0.591,0.421-0.886,0.591
		c-0.294,0.211-0.589,0.294-0.843,0.294c-0.252,0-0.505-0.127-0.758-0.337c-0.21-0.211-0.337-0.464-0.337-0.802
		c0-0.083,0.042-0.293,0.168-0.674c0.083-0.378,0.252-0.885,0.421-1.476c0.168-0.631,0.337-1.306,0.59-2.147
		c0.252-0.803,0.506-1.645,0.758-2.572c0.253-0.928,0.507-1.896,0.801-2.951c0.295-1.011,0.549-2.022,0.843-3.034H57.193z"/>
	<path d="M58.29,82.734c0.168-0.124,0.379-0.294,0.547-0.461c0.21-0.17,0.379-0.338,0.547-0.55c0.169-0.211,0.295-0.421,0.422-0.675
		c0.083-0.211,0.126-0.462,0.126-0.758c0-0.211-0.043-0.378-0.168-0.548c-0.126-0.167-0.295-0.254-0.464-0.254v-0.083
		c0.21-0.211,0.379-0.38,0.547-0.548c0.169-0.127,0.422-0.211,0.674-0.211c0.169,0,0.337,0.084,0.464,0.254
		c0.168,0.167,0.21,0.378,0.21,0.588c0,0.424-0.083,0.802-0.294,1.139c-0.168,0.38-0.38,0.675-0.674,0.971
		c-0.295,0.294-0.59,0.548-0.928,0.758c-0.295,0.254-0.632,0.421-0.885,0.591L58.29,82.734z"/>
	<path d="M61.028,89.984c0,0.421,0.085,0.801,0.295,1.096c0.168,0.253,0.464,0.38,0.885,0.38c0.212,0,0.422-0.043,0.632-0.127
		c0.169-0.083,0.337-0.167,0.506-0.294c0.168-0.126,0.295-0.254,0.464-0.421c0.127-0.17,0.252-0.296,0.379-0.423
		c0.042-0.041,0.085-0.127,0.127-0.168c0.042-0.043,0.083-0.083,0.083-0.083c0.085,0,0.127,0.04,0.127,0.083
		c0,0.084-0.084,0.211-0.295,0.465c-0.21,0.251-0.463,0.504-0.758,0.801c-0.295,0.251-0.674,0.504-1.053,0.715
		c-0.38,0.21-0.801,0.337-1.18,0.337c-0.464,0-0.843-0.167-1.097-0.464c-0.253-0.294-0.379-0.675-0.379-1.222
		c0-0.421,0.042-0.842,0.21-1.306c0.127-0.507,0.337-0.928,0.547-1.392c0.212-0.421,0.506-0.845,0.801-1.265
		c0.295-0.421,0.591-0.759,0.928-1.096c0.337-0.294,0.674-0.548,1.012-0.715c0.294-0.213,0.631-0.297,0.885-0.297
		c0.547,0,0.801,0.297,0.801,0.929c0,0.42-0.126,0.801-0.422,1.138c-0.252,0.337-0.589,0.631-0.97,0.885
		c-0.379,0.251-0.8,0.421-1.18,0.591c-0.421,0.167-0.758,0.251-1.011,0.337c-0.084,0.21-0.169,0.464-0.252,0.758
		C61.072,89.52,61.028,89.774,61.028,89.984 M63.769,85.811c0-0.167-0.084-0.293-0.168-0.337c-0.085-0.084-0.211-0.084-0.38-0.084
		c-0.21,0-0.379,0.084-0.589,0.295c-0.168,0.213-0.379,0.464-0.505,0.758c-0.169,0.296-0.295,0.591-0.422,0.887
		c-0.083,0.337-0.168,0.591-0.252,0.758c0.21-0.042,0.42-0.126,0.716-0.253c0.254-0.168,0.506-0.337,0.716-0.548
		c0.253-0.21,0.464-0.42,0.632-0.674C63.684,86.359,63.769,86.106,63.769,85.811 M63.389,83.746l2.403-3.075
		c0.042-0.043,0.084-0.084,0.169-0.17c0.042-0.04,0.126-0.04,0.252-0.04c0.169,0,0.295,0.04,0.38,0.21
		c0.125,0.127,0.21,0.294,0.21,0.464c0,0.21-0.127,0.421-0.295,0.548c-0.21,0.167-0.421,0.337-0.716,0.591l-1.854,1.473H63.389z"/>
	<path d="M70.302,78.351c-0.085,0.213-0.169,0.55-0.295,0.971c-0.127,0.464-0.295,1.012-0.464,1.603
		c-0.169,0.588-0.379,1.222-0.548,1.938c-0.21,0.675-0.422,1.349-0.632,2.064c-0.21,0.717-0.379,1.392-0.589,2.065
		c-0.212,0.632-0.38,1.223-0.506,1.77c-0.168,0.548-0.253,1.012-0.337,1.392c-0.085,0.338-0.127,0.589-0.127,0.715
		c0,0.086,0,0.211,0.083,0.254c0.043,0.083,0.085,0.127,0.168,0.17c0.085,0.04,0.169,0.083,0.254,0.083
		c0.126,0,0.168,0.041,0.252,0.041c0.212,0,0.38-0.084,0.591-0.167c0.168-0.127,0.337-0.254,0.506-0.381
		c0.168-0.126,0.295-0.251,0.379-0.337c0.126-0.127,0.168-0.168,0.168-0.168c0.085,0,0.085,0.041,0.085,0.084
		c0,0.044-0.085,0.17-0.253,0.381c-0.21,0.21-0.421,0.421-0.716,0.631c-0.253,0.211-0.547,0.421-0.843,0.591
		c-0.295,0.211-0.591,0.294-0.843,0.294c-0.253,0-0.506-0.127-0.759-0.337c-0.21-0.211-0.337-0.464-0.337-0.802
		c0-0.083,0.042-0.293,0.169-0.674c0.084-0.378,0.211-0.885,0.38-1.476c0.169-0.631,0.379-1.306,0.631-2.147
		c0.212-0.803,0.464-1.645,0.759-2.572c0.252-0.928,0.506-1.896,0.801-2.951c0.252-1.011,0.547-2.022,0.799-3.034H70.302z"/>
	<path d="M70.554,89.984c0,0.421,0.085,0.801,0.295,1.096c0.168,0.253,0.464,0.38,0.843,0.38c0.253,0,0.464-0.043,0.674-0.127
		c0.168-0.083,0.337-0.167,0.506-0.294c0.168-0.126,0.295-0.254,0.464-0.421c0.127-0.17,0.252-0.296,0.379-0.423
		c0.042-0.041,0.085-0.127,0.127-0.168c0.042-0.043,0.083-0.083,0.083-0.083c0.085,0,0.127,0.04,0.127,0.083
		c0,0.084-0.127,0.211-0.295,0.465c-0.21,0.251-0.463,0.504-0.758,0.801c-0.295,0.251-0.674,0.504-1.053,0.715
		c-0.38,0.21-0.801,0.337-1.181,0.337c-0.462,0-0.843-0.167-1.095-0.464c-0.253-0.294-0.379-0.675-0.379-1.222
		c0-0.421,0.042-0.842,0.21-1.306c0.127-0.507,0.295-0.928,0.547-1.392c0.21-0.421,0.506-0.845,0.801-1.265
		c0.295-0.421,0.591-0.759,0.928-1.096c0.337-0.294,0.674-0.548,1.012-0.715c0.294-0.213,0.631-0.297,0.885-0.297
		c0.547,0,0.801,0.297,0.801,0.929c0,0.42-0.127,0.801-0.422,1.138c-0.252,0.337-0.589,0.631-0.97,0.885
		c-0.379,0.251-0.8,0.421-1.18,0.591c-0.421,0.167-0.758,0.251-1.011,0.337c-0.084,0.21-0.169,0.464-0.252,0.758
		C70.596,89.52,70.554,89.774,70.554,89.984 M73.294,85.811c0-0.167-0.085-0.293-0.168-0.337c-0.085-0.084-0.211-0.084-0.38-0.084
		c-0.21,0-0.379,0.084-0.589,0.295c-0.168,0.213-0.379,0.464-0.505,0.758c-0.169,0.296-0.295,0.591-0.422,0.887
		c-0.127,0.337-0.168,0.591-0.252,0.758c0.21-0.042,0.42-0.126,0.674-0.253c0.295-0.168,0.547-0.337,0.758-0.548
		c0.253-0.21,0.464-0.42,0.632-0.674S73.294,86.106,73.294,85.811 M72.914,83.746l2.403-3.075c0.042-0.043,0.084-0.084,0.169-0.17
		c0.042-0.04,0.125-0.04,0.252-0.04c0.127,0,0.295,0.04,0.379,0.21c0.127,0.127,0.212,0.294,0.212,0.464
		c0,0.21-0.127,0.421-0.295,0.548c-0.21,0.167-0.422,0.337-0.716,0.591l-1.854,1.473H72.914z"/>
	<path d="M81.513,84.419c-0.211,0.675-0.464,1.479-0.674,2.319c-0.253,0.845-0.506,1.729-0.759,2.571
		c-0.252,0.885-0.547,1.729-0.801,2.53c-0.294,0.801-0.589,1.475-0.926,2.065c-0.253,0.378-0.506,0.715-0.759,1.052
		c-0.294,0.338-0.589,0.634-0.927,0.885c-0.337,0.211-0.674,0.424-1.054,0.548c-0.379,0.17-0.758,0.213-1.18,0.213
		c-0.125,0-0.294,0-0.463-0.043c-0.168-0.086-0.295-0.127-0.422-0.254c-0.127-0.083-0.252-0.21-0.295-0.378
		c-0.083-0.129-0.125-0.337-0.125-0.55c0-0.253,0.042-0.461,0.168-0.674c0.125-0.167,0.294-0.254,0.506-0.254
		c0.252,0,0.421,0.043,0.589,0.213c0.168,0.125,0.253,0.378,0.253,0.715c0,0.084-0.043,0.213-0.043,0.297
		c0,0.124,0,0.253-0.042,0.337c0.042,0.084,0.127,0.125,0.254,0.167c0.125,0.044,0.21,0.044,0.294,0.044
		c0.337,0,0.674-0.127,0.97-0.381c0.295-0.251,0.547-0.547,0.801-0.968c0.253-0.381,0.506-0.845,0.674-1.349
		c0.21-0.507,0.422-0.972,0.591-1.476c0.168-0.507,0.294-0.971,0.462-1.392c0.127-0.464,0.254-0.802,0.337-1.095h-0.042
		c-0.083,0.253-0.252,0.59-0.464,0.884c-0.21,0.337-0.462,0.632-0.758,0.928c-0.253,0.254-0.548,0.505-0.843,0.675
		c-0.295,0.211-0.591,0.294-0.886,0.294c-0.379,0-0.631-0.167-0.8-0.421c-0.168-0.253-0.253-0.631-0.253-1.011
		c0-0.465,0.042-0.969,0.21-1.433c0.168-0.507,0.337-0.972,0.59-1.435c0.252-0.462,0.548-0.929,0.843-1.349
		c0.337-0.421,0.674-0.759,1.011-1.096c0.337-0.294,0.674-0.548,1.053-0.715c0.337-0.213,0.633-0.297,0.928-0.297
		c0.168,0,0.337,0.043,0.464,0.127c0.125,0.084,0.252,0.127,0.379,0.17L81.513,84.419z M76.117,90.448
		c0,0.295,0.085,0.548,0.169,0.758c0.084,0.17,0.295,0.254,0.59,0.254c0.21,0,0.422-0.084,0.633-0.21
		c0.21-0.17,0.42-0.381,0.589-0.632c0.168-0.254,0.337-0.507,0.464-0.761c0.168-0.293,0.253-0.504,0.337-0.714
		c0.085-0.17,0.168-0.338,0.253-0.635c0.084-0.293,0.169-0.588,0.294-0.884c0.085-0.338,0.168-0.632,0.253-0.886
		c0.083-0.296,0.126-0.463,0.126-0.59s-0.043-0.211-0.126-0.338c-0.085-0.083-0.168-0.167-0.295-0.251
		c-0.127-0.042-0.252-0.129-0.421-0.129c-0.126-0.041-0.253-0.041-0.38-0.041c-0.294,0-0.589,0.17-0.885,0.591
		c-0.295,0.421-0.547,0.886-0.801,1.433c-0.21,0.548-0.421,1.139-0.548,1.686C76.202,89.69,76.117,90.111,76.117,90.448"/>
	<path d="M88.298,84.716c-0.083,0.17-0.168,0.421-0.295,0.802c-0.125,0.337-0.252,0.758-0.379,1.221
		c-0.168,0.421-0.295,0.886-0.421,1.349c-0.168,0.508-0.295,0.929-0.422,1.349c-0.083,0.381-0.21,0.718-0.252,1.012
		c-0.085,0.295-0.126,0.465-0.126,0.507c0,0.211,0.083,0.338,0.252,0.421c0.127,0.084,0.295,0.127,0.422,0.127
		c0.168,0,0.295-0.043,0.464-0.17c0.168-0.083,0.294-0.21,0.421-0.337c0.126-0.127,0.253-0.253,0.337-0.378
		c0.085-0.086,0.168-0.126,0.212-0.126c0.083,0,0.125,0,0.125,0.04c0,0.043-0.084,0.17-0.21,0.381
		c-0.169,0.167-0.379,0.38-0.591,0.59c-0.252,0.21-0.506,0.421-0.843,0.548c-0.294,0.211-0.631,0.294-0.968,0.294
		c-0.169,0-0.38-0.083-0.591-0.211c-0.21-0.126-0.337-0.337-0.337-0.631c0-0.127,0.042-0.297,0.085-0.464
		c0.084-0.21,0.169-0.421,0.252-0.634c0.085-0.21,0.168-0.378,0.253-0.588c0.083-0.211,0.125-0.381,0.168-0.464V89.31
		c-0.168,0.254-0.38,0.591-0.632,0.928c-0.253,0.38-0.506,0.717-0.801,1.012c-0.295,0.294-0.632,0.547-0.969,0.758
		c-0.294,0.21-0.631,0.337-0.927,0.337c-0.168,0-0.337-0.083-0.464-0.167c-0.127-0.086-0.21-0.211-0.295-0.337
		c-0.084-0.17-0.127-0.338-0.168-0.508c-0.042-0.21-0.042-0.378-0.042-0.548c0-0.504,0.083-0.968,0.252-1.475
		c0.168-0.505,0.422-0.969,0.675-1.433c0.294-0.423,0.589-0.885,0.927-1.265c0.337-0.421,0.716-0.758,1.053-1.053
		c0.337-0.296,0.674-0.55,0.97-0.717c0.337-0.17,0.591-0.254,0.801-0.254c0.169,0,0.337,0.084,0.464,0.211
		c0.168,0.17,0.252,0.337,0.294,0.548c0.085-0.254,0.168-0.462,0.211-0.632H88.298z M82.82,90.575c0,0.254,0.042,0.464,0.21,0.591
		c0.126,0.167,0.295,0.251,0.506,0.251c0.21,0,0.464-0.124,0.716-0.294c0.21-0.168,0.464-0.38,0.674-0.675
		c0.21-0.253,0.379-0.547,0.548-0.842c0.168-0.296,0.253-0.55,0.38-0.801c0-0.086,0.084-0.253,0.169-0.507
		c0.083-0.211,0.168-0.464,0.252-0.715c0.085-0.254,0.168-0.507,0.253-0.717c0.042-0.211,0.084-0.338,0.084-0.424
		c0-0.124-0.042-0.294-0.127-0.421c-0.042-0.124-0.168-0.254-0.294-0.378c-0.085-0.084-0.212-0.17-0.38-0.213
		c-0.125-0.083-0.252-0.083-0.337-0.083c-0.169,0-0.252,0-0.337,0.042c-0.125,0-0.168,0.041-0.252,0.084
		c-0.042,0.086-0.126,0.17-0.168,0.254c-0.042,0.083-0.126,0.17-0.21,0.337c-0.168,0.294-0.38,0.632-0.59,0.969
		c-0.169,0.38-0.379,0.758-0.548,1.138c-0.168,0.424-0.295,0.845-0.379,1.223C82.862,89.817,82.82,90.195,82.82,90.575"/>
	<path d="M92.344,84.843l-1.137,3.665l0.042,0.044c0.127-0.381,0.337-0.761,0.589-1.223c0.254-0.421,0.506-0.887,0.843-1.265
		c0.295-0.421,0.632-0.758,0.969-1.055c0.38-0.253,0.718-0.421,1.097-0.421c0.126,0,0.252,0.043,0.421,0.084
		c0.126,0.043,0.253,0.084,0.38,0.17c0.084,0.084,0.21,0.21,0.252,0.337c0.085,0.168,0.127,0.338,0.127,0.505
		c0,0.17-0.042,0.38-0.127,0.674c-0.084,0.297-0.168,0.591-0.295,0.928c-0.125,0.338-0.252,0.675-0.379,1.055
		c-0.127,0.378-0.252,0.715-0.379,1.053c-0.127,0.296-0.21,0.633-0.295,0.887c-0.083,0.251-0.083,0.462-0.083,0.588
		c0,0.17,0.042,0.297,0.125,0.424c0.126,0.083,0.253,0.167,0.38,0.167c0.169,0,0.294-0.043,0.421-0.127
		c0.127-0.083,0.253-0.127,0.379-0.21c0.085-0.127,0.169-0.168,0.254-0.254c0.083-0.084,0.126-0.084,0.168-0.084
		c0.043,0,0.043,0,0.084,0c0,0.044,0.043,0.044,0.043,0.084c0,0.044-0.084,0.127-0.253,0.297c-0.127,0.127-0.296,0.294-0.506,0.421
		c-0.21,0.167-0.464,0.294-0.716,0.421c-0.253,0.126-0.506,0.17-0.716,0.17c-0.253,0-0.464-0.086-0.717-0.211
		c-0.21-0.126-0.337-0.38-0.337-0.717c0-0.127,0.042-0.337,0.127-0.632c0.083-0.254,0.168-0.55,0.295-0.887
		c0.125-0.337,0.252-0.675,0.379-1.053c0.127-0.337,0.253-0.674,0.379-1.012c0.127-0.337,0.212-0.633,0.295-0.928
		c0.085-0.253,0.085-0.463,0.085-0.633c0-0.421-0.168-0.675-0.549-0.675c-0.252,0-0.506,0.129-0.758,0.337
		c-0.254,0.254-0.506,0.551-0.759,0.929c-0.252,0.38-0.506,0.801-0.716,1.265c-0.253,0.464-0.464,0.928-0.674,1.433
		c-0.21,0.463-0.379,0.97-0.506,1.435c-0.168,0.464-0.295,0.884-0.379,1.263h-1.096c0.337-1.223,0.674-2.444,0.97-3.623
		c0.379-1.222,0.716-2.403,1.053-3.625H92.344z"/>
	<path d="M98.16,90.027c0,0.505,0.086,0.886,0.296,1.139c0.211,0.251,0.548,0.378,0.928,0.378c0.211,0,0.421-0.041,0.591-0.211
		c0.211-0.127,0.421-0.294,0.588-0.464c0.17-0.167,0.297-0.337,0.424-0.464c0.084-0.167,0.167-0.21,0.211-0.21
		c0.04,0,0.04,0,0.083,0s0.043,0.043,0.043,0.127c0,0.083-0.086,0.21-0.296,0.463c-0.168,0.211-0.421,0.421-0.716,0.675
		c-0.253,0.211-0.59,0.421-0.928,0.591c-0.337,0.211-0.633,0.294-0.971,0.294c-0.504,0-0.885-0.211-1.179-0.632
		c-0.294-0.42-0.422-0.928-0.422-1.475c0-0.591,0.128-1.182,0.379-1.855c0.294-0.632,0.632-1.266,1.055-1.811
		c0.421-0.591,0.885-1.054,1.392-1.435c0.504-0.337,1.012-0.548,1.473-0.548c0.297,0,0.508,0.127,0.675,0.381
		c0.213,0.21,0.253,0.504,0.253,0.841c0,0.295-0.04,0.548-0.127,0.802c-0.126,0.254-0.293,0.337-0.588,0.337
		c-0.17,0-0.296-0.041-0.423-0.127c-0.084-0.126-0.168-0.294-0.168-0.504c0-0.084,0.041-0.213,0.084-0.297s0.084-0.124,0.17-0.211
		c-0.043-0.21-0.17-0.38-0.297-0.463c-0.167-0.084-0.294-0.125-0.504-0.125c-0.17,0-0.381,0.084-0.548,0.251
		c-0.17,0.211-0.337,0.424-0.507,0.718c-0.127,0.294-0.254,0.631-0.38,1.012c-0.125,0.337-0.254,0.717-0.338,1.054
		c-0.083,0.338-0.124,0.675-0.21,1.012C98.16,89.564,98.16,89.817,98.16,90.027"/>
	<path d="M103.346,89.984c0,0.421,0.083,0.801,0.251,1.096c0.169,0.253,0.464,0.38,0.885,0.38c0.213,0,0.423-0.043,0.634-0.127
		c0.169-0.083,0.378-0.167,0.507-0.294c0.167-0.126,0.337-0.254,0.461-0.421c0.127-0.17,0.254-0.296,0.421-0.423
		c0.043-0.041,0.087-0.127,0.129-0.168c0-0.043,0.041-0.083,0.041-0.083c0.084,0,0.127,0.04,0.127,0.083
		c0,0.084-0.084,0.211-0.297,0.465c-0.167,0.251-0.421,0.504-0.758,0.801c-0.294,0.251-0.631,0.504-1.052,0.715
		c-0.38,0.21-0.761,0.337-1.182,0.337c-0.464,0-0.801-0.167-1.095-0.464c-0.254-0.294-0.381-0.675-0.381-1.222
		c0-0.421,0.084-0.842,0.211-1.306c0.127-0.507,0.337-0.928,0.548-1.392c0.253-0.421,0.507-0.845,0.801-1.265
		c0.297-0.421,0.634-0.759,0.971-1.096c0.294-0.294,0.631-0.548,0.968-0.715c0.295-0.213,0.632-0.297,0.928-0.297
		c0.508,0,0.759,0.297,0.759,0.929c0,0.42-0.127,0.801-0.421,1.138c-0.254,0.337-0.591,0.631-0.971,0.885
		c-0.378,0.251-0.758,0.421-1.179,0.591c-0.421,0.167-0.758,0.251-1.012,0.337c-0.084,0.21-0.17,0.464-0.211,0.758
		C103.346,89.52,103.346,89.774,103.346,89.984 M106.043,85.811c0-0.167-0.043-0.293-0.17-0.337
		c-0.084-0.084-0.21-0.084-0.338-0.084c-0.21,0-0.42,0.084-0.631,0.295c-0.17,0.213-0.337,0.464-0.507,0.758
		c-0.167,0.296-0.294,0.591-0.421,0.887c-0.083,0.337-0.17,0.591-0.211,0.758c0.168-0.042,0.379-0.126,0.675-0.253
		c0.254-0.168,0.505-0.337,0.758-0.548c0.211-0.21,0.424-0.42,0.591-0.674C105.959,86.359,106.043,86.065,106.043,85.811"/>
	<path d="M116.328,78.351c-0.043,0.213-0.17,0.55-0.296,0.971c-0.128,0.464-0.254,1.012-0.465,1.603
		c-0.167,0.588-0.337,1.222-0.547,1.938c-0.211,0.675-0.421,1.349-0.632,2.064c-0.213,0.717-0.38,1.392-0.591,2.065
		c-0.17,0.632-0.337,1.223-0.507,1.77c-0.126,0.548-0.251,1.012-0.337,1.392c-0.084,0.338-0.127,0.589-0.127,0.715
		c0,0.086,0.043,0.211,0.087,0.254c0.04,0.083,0.126,0.127,0.21,0.17c0.083,0.04,0.167,0.083,0.253,0.083
		c0.084,0,0.168,0.041,0.211,0.041c0.21,0,0.378-0.084,0.588-0.167c0.213-0.127,0.38-0.254,0.508-0.381
		c0.167-0.126,0.293-0.251,0.42-0.337c0.084-0.127,0.127-0.168,0.17-0.168c0.041,0,0.041,0.041,0.041,0.084
		c0,0.044-0.084,0.17-0.251,0.381c-0.17,0.21-0.424,0.421-0.675,0.631c-0.296,0.211-0.55,0.421-0.887,0.591
		c-0.295,0.211-0.588,0.294-0.842,0.294c-0.253,0-0.507-0.127-0.758-0.337c-0.211-0.211-0.337-0.464-0.337-0.802
		c0-0.083,0.04-0.293,0.167-0.674c0.084-0.378,0.254-0.885,0.421-1.476c0.17-0.631,0.337-1.306,0.591-2.147
		c0.253-0.803,0.507-1.645,0.758-2.572c0.253-0.928,0.507-1.896,0.801-2.951c0.297-1.011,0.548-2.022,0.844-3.034H116.328z"/>
	<path d="M118.896,84.589c-0.084,0.381-0.208,0.842-0.421,1.433c-0.211,0.55-0.421,1.182-0.632,1.77
		c-0.167,0.634-0.38,1.182-0.504,1.729c-0.17,0.548-0.254,0.972-0.254,1.265c0,0.211,0.084,0.381,0.211,0.465
		c0.167,0.126,0.294,0.21,0.464,0.21c0.21,0,0.421-0.084,0.59-0.254c0.209-0.126,0.379-0.293,0.505-0.463
		c0.17-0.168,0.294-0.338,0.421-0.462c0.127-0.127,0.17-0.213,0.211-0.213c0.083,0,0.083,0.043,0.083,0.127
		c0,0.043-0.083,0.21-0.251,0.423c-0.17,0.251-0.38,0.505-0.631,0.715c-0.254,0.254-0.55,0.508-0.845,0.675
		c-0.296,0.21-0.591,0.337-0.884,0.337c-0.127,0-0.295-0.041-0.424-0.083c-0.124-0.044-0.251-0.128-0.378-0.211
		c-0.126-0.084-0.21-0.21-0.296-0.38c-0.084-0.127-0.125-0.295-0.125-0.465c0-0.083,0.041-0.293,0.167-0.631
		c0.084-0.337,0.211-0.801,0.381-1.392c0.21-0.548,0.38-1.222,0.631-1.979c0.211-0.802,0.507-1.644,0.761-2.614H118.896z
		 M119.57,79.279c0.213,0,0.38,0.043,0.55,0.17c0.125,0.127,0.168,0.337,0.168,0.631c0,0.295-0.084,0.548-0.21,0.758
		c-0.17,0.211-0.338,0.337-0.548,0.337c-0.254,0-0.421-0.083-0.548-0.21s-0.211-0.337-0.211-0.631c0-0.297,0.084-0.548,0.254-0.758
		C119.149,79.363,119.319,79.279,119.57,79.279"/>
	<path d="M124.756,78.351c-0.213,0.717-0.463,1.435-0.717,2.235c-0.211,0.758-0.464,1.517-0.675,2.276
		c-0.253,0.759-0.507,1.474-0.718,2.147c-0.21,0.675-0.42,1.309-0.674,1.898l0.043,0.041c0.168-0.253,0.338-0.507,0.548-0.758
		c0.211-0.294,0.464-0.548,0.718-0.761c0.251-0.251,0.504-0.461,0.801-0.588c0.251-0.17,0.504-0.254,0.758-0.254
		c0.337,0,0.632,0.127,0.801,0.381c0.211,0.21,0.338,0.548,0.338,0.968c0,0.421-0.087,0.885-0.211,1.392
		c-0.169,0.462-0.38,0.969-0.591,1.433c-0.253,0.464-0.547,0.928-0.928,1.349c-0.337,0.421-0.674,0.802-1.055,1.139
		c-0.337,0.337-0.758,0.591-1.136,0.801c-0.38,0.167-0.761,0.294-1.141,0.294c-0.208,0-0.421-0.083-0.545-0.167
		c-0.17-0.127-0.296-0.254-0.424-0.381c-0.083-0.167-0.167-0.294-0.21-0.464c-0.083-0.127-0.083-0.253-0.083-0.337
		c0-0.041,0.042-0.127,0.083-0.337c0.043-0.167,0.127-0.378,0.21-0.632c0.128-0.296,0.211-0.591,0.338-0.928
		c0.127-0.38,0.253-0.758,0.337-1.138c0.043-0.17,0.17-0.507,0.337-1.095c0.17-0.591,0.424-1.307,0.675-2.193
		c0.297-0.842,0.591-1.853,0.885-2.95c0.337-1.053,0.717-2.19,1.055-3.372H124.756z M120.961,90.869
		c0,0.127,0.044,0.254,0.127,0.337c0.043,0.127,0.127,0.17,0.21,0.254c0.128,0.084,0.211,0.127,0.338,0.17
		c0.086,0.041,0.21,0.083,0.297,0.083c0.21,0,0.421-0.083,0.674-0.296c0.21-0.211,0.421-0.462,0.631-0.799
		c0.17-0.296,0.381-0.674,0.548-1.054c0.17-0.421,0.297-0.802,0.421-1.223c0.127-0.38,0.254-0.758,0.297-1.138
		c0.083-0.337,0.127-0.632,0.127-0.885c0-0.213-0.044-0.421-0.17-0.634c-0.084-0.211-0.254-0.295-0.421-0.295
		c-0.254,0-0.507,0.084-0.758,0.295c-0.254,0.213-0.507,0.464-0.718,0.801c-0.21,0.337-0.421,0.674-0.631,1.098
		c-0.211,0.421-0.381,0.842-0.507,1.222c-0.128,0.421-0.254,0.801-0.338,1.179C121.005,90.322,120.961,90.618,120.961,90.869"/>
	<path d="M128.506,84.843h1.181l-0.884,2.781l0.04,0.042c0.127-0.253,0.254-0.59,0.421-0.928c0.17-0.337,0.381-0.674,0.591-1.011
		c0.213-0.297,0.464-0.591,0.718-0.801c0.253-0.211,0.547-0.338,0.844-0.338c0.294,0,0.545,0.127,0.715,0.338
		c0.211,0.21,0.297,0.504,0.297,0.884c0,0.127,0,0.254-0.044,0.424c0,0.124-0.042,0.294-0.126,0.421
		c-0.084,0.083-0.127,0.211-0.254,0.294c-0.083,0.084-0.21,0.127-0.337,0.127c-0.167,0-0.337-0.084-0.464-0.21
		c-0.084-0.128-0.168-0.295-0.168-0.508c0-0.124,0.044-0.21,0.084-0.337c0.044-0.084,0.084-0.211,0.127-0.294
		c-0.083-0.084-0.167-0.168-0.253-0.168c-0.127-0.042-0.251-0.042-0.338-0.042c-0.21,0-0.464,0.126-0.674,0.42
		c-0.211,0.254-0.421,0.591-0.632,1.012c-0.21,0.38-0.423,0.842-0.591,1.349c-0.21,0.507-0.378,1.012-0.507,1.519
		c-0.167,0.505-0.294,0.926-0.421,1.349c-0.083,0.378-0.167,0.715-0.21,0.926h-1.095L128.506,84.843z"/>
	<path d="M133.27,89.984c0,0.421,0.126,0.801,0.293,1.096c0.17,0.253,0.465,0.38,0.888,0.38c0.211,0,0.421-0.043,0.631-0.127
		c0.168-0.083,0.338-0.167,0.505-0.294c0.17-0.126,0.297-0.254,0.464-0.421c0.127-0.17,0.254-0.296,0.38-0.423
		c0.084-0.041,0.128-0.127,0.128-0.168c0.04-0.043,0.083-0.083,0.083-0.083c0.084,0,0.127,0.04,0.127,0.083
		c0,0.084-0.084,0.211-0.294,0.465c-0.214,0.251-0.424,0.504-0.761,0.801c-0.294,0.251-0.674,0.504-1.052,0.715
		c-0.381,0.21-0.801,0.337-1.182,0.337c-0.464,0-0.801-0.167-1.096-0.464c-0.253-0.294-0.38-0.675-0.38-1.222
		c0-0.421,0.087-0.842,0.211-1.306c0.127-0.507,0.337-0.928,0.55-1.392c0.251-0.421,0.505-0.845,0.798-1.265
		c0.298-0.421,0.635-0.759,0.929-1.096c0.337-0.294,0.674-0.548,1.011-0.715c0.297-0.213,0.635-0.297,0.886-0.297
		c0.547,0,0.801,0.297,0.801,0.929c0,0.42-0.127,0.801-0.421,1.138c-0.254,0.337-0.591,0.631-0.969,0.885
		c-0.38,0.251-0.801,0.421-1.181,0.591c-0.421,0.167-0.758,0.251-1.012,0.337c-0.084,0.21-0.167,0.464-0.211,0.758
		C133.313,89.52,133.27,89.774,133.27,89.984 M136.01,85.811c0-0.167-0.087-0.293-0.17-0.337c-0.084-0.084-0.211-0.084-0.338-0.084
		c-0.21,0-0.421,0.084-0.631,0.295c-0.17,0.213-0.337,0.464-0.507,0.758c-0.167,0.296-0.294,0.591-0.421,0.887
		c-0.083,0.337-0.167,0.591-0.253,0.758c0.21-0.042,0.423-0.126,0.717-0.253c0.254-0.168,0.505-0.337,0.718-0.548
		c0.251-0.21,0.461-0.42,0.631-0.674C135.923,86.359,136.01,86.065,136.01,85.811"/>
</g>
<g>
	<path d="M31.104,48.554c-0.674-0.674-1.137-1.096-1.306-1.349l-3.034-2.951c-1.729-1.686-4.004-4.172-6.787-7.46
		c-2.824-3.287-5.058-6.027-6.66-8.261c-1.307-1.813-2.402-2.697-3.33-2.697c-1.391,0-2.781,0.97-4.173,2.951
		c-1.432,1.98-2.149,4.425-2.149,7.333c0,3.542,1.223,6.955,3.667,10.2c3.373,4.426,7.671,6.618,12.896,6.618
		C24.571,52.937,28.196,51.503,31.104,48.554 M36.162,45.73c6.321,6.152,10.916,9.187,13.74,9.187c1.896,0,2.107-0.547,2.36-0.588
		c0.337,0-1.18,3.161-5.858,3.161c-2.108,0-4.046-0.464-5.775-1.392c-1.728-0.928-4.256-2.867-7.544-5.774
		c-4.678,4.807-9.609,7.166-14.793,7.166c-5.269,0-9.652-1.729-13.107-5.227C1.728,48.806,0,44.423,0,39.112
		c0-4.383,1.349-8.092,4.004-11.126c1.432-1.728,3.497-2.951,6.152-3.667c-1.896-2.824-2.824-5.563-2.824-8.304
		c0-2.866,0.928-5.226,2.824-6.997c1.897-1.811,4.383-2.697,7.46-2.697c1.559,0,3.203,0.38,4.931,1.138c0,0,1.644,0.716,1.854,0.801
		c0.168,0.127,0.211,0.295,0.211,0.295l1.391,7.881c0,0,0,0.295-0.127,0.083c-0.589-1.095-2.57-4.51-4.088-5.773
		c-1.854-1.56-3.625-2.318-5.395-2.318c-1.476,0-2.782,0.506-3.835,1.559c-1.055,1.055-1.561,2.318-1.561,3.794
		c0,1.39,0.464,2.992,1.476,4.762c1.011,1.771,2.655,4.047,5.057,6.87l7.967,9.484c2.108,2.487,5.016,5.563,8.851,9.315
		c1.011-2.108,1.559-4.468,1.559-7.082c0-1.896-0.379-3.497-1.012-4.804c-1.601-3.499-5.099-3.33-5.099-3.33s0.125-0.801,0.8-0.801
		c0.168,0,0.38,0,0.759,0.085c0.633,0.083,2.487,0.125,5.563,0.125c0.97,0,1.854-0.042,2.656-0.125
		c0.759-0.085,1.307-0.127,1.602-0.127c0.379,0,0.631,0.589,0.631,0.589s-1.896,0.295-2.275,2.403
		c-0.127,0.716-0.464,1.938-0.591,3.751C38.649,39.029,37.679,42.61,36.162,45.73"/>
	<path d="M153.501,23.349h2.611V2.992l18.209,20.357h2.781V0.548h-2.781v18.755l-16.9-18.755h-3.92V23.349z M121.722,23.349h2.611
		V2.992l18.25,20.357h2.74V0.548h-2.74v18.755L125.641,0.548h-3.919V23.349z M89.226,23.349h3.076l2.951-5.942h14.709l2.951,5.942
		h3.118L104.315,0.548h-3.372L89.226,23.349z M96.516,14.962l6.112-12.265l6.112,12.265H96.516z M63.389,23.349h2.655l5.564-18.587
		h0.042l5.563,18.587h2.655l7.081-22.801h-2.908l-5.438,18.376H78.52L72.872,0.548h-2.614L64.653,19.05h-0.085L59.174,0.548h-2.907
		L63.389,23.349z M28.743,18.629c1.939,2.15,4.679,5.268,12.139,5.268c7.754,0,11.464-3.16,11.464-6.995
		c0-10.2-19.893-3.625-19.893-10.537c0-2.867,3.245-4.047,7.796-4.047c6.237,0,8.429,2.909,9.356,3.962l2.023-1.644
		C50.029,2.444,46.362,0,40.335,0c-6.196,0-10.706,1.938-10.706,6.827c0,9.231,19.894,3.161,19.894,10.074
		c0,3.54-4.805,4.552-8.303,4.552c-6.828,0-9.02-2.909-10.369-4.637L28.743,18.629z"/>
	<path d="M167.156,51.125h2.783V41.051h8.934l7.334,10.073h3.455l-7.585-10.158c2.781-0.125,7.164-1.474,7.164-6.279
		c0-5.563-5.309-6.323-8.934-6.323h-13.151V51.125z M169.939,30.81h9.777c3.962,0,6.913,0.548,6.913,3.878
		c0,3.33-2.951,3.919-6.913,3.919h-9.777V30.81z M134.662,51.125h3.075l2.95-5.9h14.709l2.95,5.9h3.077l-11.674-22.76h-3.371
		L134.662,51.125z M141.953,42.779l6.111-12.265l6.112,12.265H141.953z M128.296,43.875c-1.896,3.499-5.015,5.395-9.525,5.395
		c-6.913,0-10.451-3.919-10.451-9.146c0-6.489,3.666-10.031,10.198-10.031c4.34,0,7.882,1.561,9.483,5.311l2.403-1.095
		c-2.066-4.637-7.04-6.533-11.93-6.533c-7.671,0-12.981,4.172-12.981,12.011c0,6.618,4.175,11.929,13.024,11.929
		c5.564,0,9.778-1.897,12.225-6.618L128.296,43.875z M76.876,46.446c1.939,2.15,4.679,5.27,12.139,5.27
		c7.755,0,11.464-3.162,11.464-6.997c0-10.241-19.894-3.667-19.894-10.537c0-2.909,3.246-4.089,7.84-4.089
		c6.195,0,8.387,2.909,9.314,4.004l2.022-1.643c-1.602-2.193-5.268-4.678-11.295-4.678c-6.195,0-10.706,1.98-10.706,6.827
		c0,9.273,19.894,3.161,19.894,10.116c0,3.541-4.805,4.552-8.302,4.552c-6.828,0-9.02-2.908-10.369-4.678L76.876,46.446z
		 M48.3,39.366c0-5.057,3.92-9.273,10.537-9.273c6.618,0,10.495,4.216,10.495,9.273c0,6.954-4.974,9.904-10.495,9.904
		C53.232,49.27,48.3,46.319,48.3,39.366 M45.476,39.872c0,8.092,6.787,11.844,13.361,11.844s13.319-3.752,13.319-11.844
		c0-7.586-5.606-12.096-13.319-12.096C51.082,27.775,45.476,32.285,45.476,39.872"/>
</g>
</svg>
