<?xml version="1.0" encoding="UTF-8"?>
<svg width="388px" height="392px" viewBox="0 0 388 392" version="1.1" xmlns="http://www.w3.org/2000/svg" xmlns:xlink="http://www.w3.org/1999/xlink">
    <!-- Generator: Sketch 49 (51002) - http://www.bohemiancoding.com/sketch -->
    <title>compo-sticks</title>
    <desc>Created with Sketch.</desc>
    <defs></defs>
    <g id="Page-1" stroke="none" stroke-width="1" fill="none" fill-rule="evenodd">
        <g id="compo-sticks" transform="translate(0.000000, -3.000000)">
            <g id="S" transform="translate(72.503005, 186.987789) rotate(15.000000) translate(-72.503005, -186.987789) translate(25.503005, 84.987789)">
                <path d="M0,78 L88,78 L88,204 L0,204 L0,78 Z M1,79 L1,203 L87,203 L87,79 L1,79 Z" id="Combined-Shape" fill="#1D1D1B"></path>
                <path d="M44.5,102 C40.9101491,102 38,99.0898509 38,95.5 C38,91.9101491 40.9101491,89 44.5,89 C48.0898509,89 51,91.9101491 51,95.5 C51,99.0898509 48.0898509,102 44.5,102 Z M44.5,101 C47.5375661,101 50,98.5375661 50,95.5 C50,92.4624339 47.5375661,90 44.5,90 C41.4624339,90 39,92.4624339 39,95.5 C39,98.5375661 41.4624339,101 44.5,101 Z" id="Combined-Shape" fill="#1D1D1B"></path>
                <text font-family="DIN-Bold, DIN" font-size="38" font-weight="bold" letter-spacing="7.03703737" fill="#222D1C">
                    <tspan x="33.7524813" y="178">S</tspan>
                </text>
                <rect id="soulign" fill="#633588" x="35" y="187" width="19" height="4"></rect>
                <path d="M49.4784439,100 C39.2128971,85.5545304 36.2826035,73.2206845 40.6875632,62.9984622 C45.0925228,52.77624 56.0985756,43.1100859 73.7057218,34 C85.7669207,26.4444444 92.5316801,19.1111111 94,12" id="Path-24" stroke="#1D1D1B"></path>
                <path d="M83.4283869,78.5003647 C74.8183664,68.9398536 73.4133069,59.0731504 79.2132083,48.9002551 C87.9130604,33.6409122 66.4599022,21.1540268 71.8951022,0.869584483" id="Path-24-Copy" stroke="#1D1D1B" transform="translate(77.214193, 39.684975) scale(-1, 1) translate(-77.214193, -39.684975) "></path>
            </g>
            <g id="M" transform="translate(152.968753, 278.852688) rotate(-10.000000) translate(-152.968753, -278.852688) translate(108.968753, 168.352688)">
                <path d="M0,94 L88,94 L88,220 L0,220 L0,94 Z M1,95 L1,219 L87,219 L87,95 L1,95 Z" id="Combined-Shape" fill="#1D1D1B"></path>
                <path d="M44.5,118 C40.9101491,118 38,115.089851 38,111.5 C38,107.910149 40.9101491,105 44.5,105 C48.0898509,105 51,107.910149 51,111.5 C51,115.089851 48.0898509,118 44.5,118 Z M44.5,117 C47.5375661,117 50,114.537566 50,111.5 C50,108.462434 47.5375661,106 44.5,106 C41.4624339,106 39,108.462434 39,111.5 C39,114.537566 41.4624339,117 44.5,117 Z" id="Combined-Shape" fill="#1D1D1B"></path>
                <polygon fill="#222D1C" points="57.2364813 194 51.9544813 194 51.9544813 178.23 46.7864813 188.49 43.2144813 188.49 38.0084813 178.23 38.0084813 194 32.7264813 194 32.7264813 166.944 37.9324813 166.944 45.0004813 181.574 52.0304813 166.944 57.2364813 166.944"></polygon>
                <rect id="soulign" fill="#633588" x="35" y="203" width="19" height="4"></rect>
                <path d="M48.5714286,116 C37.2740836,100.541891 34.7761848,89.1093459 41.0777322,81.7023643 C47.3792796,74.2953827 52.2824127,68.3904266 55.7871315,63.9874961 C69.3777577,40.6597493 67.7141787,19.3809321 50.7963945,0.151044525" id="Path-24" stroke="#1D1D1B"></path>
                <path d="M47.1207794,94.3428882 C38.2205747,84.0849926 36.6038057,73.9560448 42.2704723,63.9560448 C50.7704723,48.9560448 60.3345685,34.9808025 56.8345685,16.9808025" id="Path-24-Copy" stroke="#1D1D1B" transform="translate(48.270005, 55.661845) scale(-1, 1) translate(-48.270005, -55.661845) "></path>
            </g>
            <g id="L" transform="translate(220.293993, 158.653469) rotate(-20.000000) translate(-220.293993, -158.653469) translate(176.293993, 58.653469)">
                <path d="M0,74 L88,74 L88,200 L0,200 L0,74 Z M1,75 L1,199 L87,199 L87,75 L1,75 Z" id="Combined-Shape" fill="#1D1D1B"></path>
                <path d="M44.5,98 C40.9101491,98 38,95.0898509 38,91.5 C38,87.9101491 40.9101491,85 44.5,85 C48.0898509,85 51,87.9101491 51,91.5 C51,95.0898509 48.0898509,98 44.5,98 Z M44.5,97 C47.5375661,97 50,94.5375661 50,91.5 C50,88.4624339 47.5375661,86 44.5,86 C41.4624339,86 39,88.4624339 39,91.5 C39,94.5375661 41.4624339,97 44.5,97 Z" id="Combined-Shape" fill="#1D1D1B"></path>
                <polygon fill="#222D1C" points="54.7664813 174 37.2104813 174 37.2104813 146.944 42.4924813 146.944 42.4924813 169.288 54.7664813 169.288"></polygon>
                <rect id="soulign" fill="#633588" x="35" y="183" width="19" height="4"></rect>
                <path d="M48.5714286,96 C29.5725885,86.3669514 20.3737303,76.3389339 20.9748539,65.9159472 C21.8765392,50.2814673 24.524607,51.777374 28.9708689,39.5613699 C33.4171307,27.3453659 70.329423,13.6438083 40.4734531,0.648768427" id="Path-24" stroke="#1D1D1B"></path>
                <path d="M22.0780903,74.4681763 C16.3777546,58.8066327 18.667682,49.9918339 28.9478727,48.0237802 C66.8810488,46.9873664 12.8331932,13.9823774 53.3695276,4.01715822" id="Path-24-Copy" stroke="#1D1D1B" transform="translate(36.198805, 39.242667) scale(-1, 1) translate(-36.198805, -39.242667) "></path>
            </g>
            <g id="XL" transform="translate(341.733661, 105.490699) rotate(4.000000) translate(-341.733661, -105.490699) translate(297.733661, 2.990699)">
                <path d="M0,79 L88,79 L88,205 L0,205 L0,79 Z M1,80 L1,204 L87,204 L87,80 L1,80 Z" id="Combined-Shape" fill="#1D1D1B"></path>
                <path d="M44.5,103 C40.9101491,103 38,100.089851 38,96.5 C38,92.9101491 40.9101491,90 44.5,90 C48.0898509,90 51,92.9101491 51,96.5 C51,100.089851 48.0898509,103 44.5,103 Z M44.5,102 C47.5375661,102 50,99.5375661 50,96.5 C50,93.4624339 47.5375661,91 44.5,91 C41.4624339,91 39,93.4624339 39,96.5 C39,99.5375661 41.4624339,102 44.5,102 Z" id="Combined-Shape" fill="#1D1D1B"></path>
                <path d="M46.842,179 L40.8,179 L35.556,169.576 L30.35,179 L24.308,179 L32.706,165.13 L24.84,151.944 L30.844,151.944 L35.556,160.684 L40.306,151.944 L46.272,151.944 L38.406,165.13 L46.842,179 Z M67.742,179 L50.186,179 L50.186,151.944 L55.468,151.944 L55.468,174.288 L67.742,174.288 L67.742,179 Z" fill="#222D1C"></path>
                <rect id="soulign" fill="#633588" x="35" y="188" width="19" height="4"></rect>
                <path d="M48.5714286,101 C41.3420856,87.4384341 36.9550936,76.780747 35.4104526,69.0269386 C33.0934911,57.3962261 34.4597186,52.8065682 37.3672844,46.8363818 C48.4850012,24.0080623 73.3598334,38.3048862 68.6685943,7.05600985" id="Path-24" stroke="#1D1D1B"></path>
                <path d="M43.9769728,79.8816036 C36.7824999,68.7234892 36.0185968,58.1444319 41.6852635,48.1444319 C50.1852635,33.1444319 61.0728813,18.1357494 57.5728813,0.135749373" id="Path-24-Copy" stroke="#1D1D1B" transform="translate(48.092764, 40.008677) scale(-1, 1) translate(-48.092764, -40.008677) "></path>
            </g>
        </g>
    </g>
</svg>