<?xml version="1.0" encoding="UTF-8"?>
<svg width="437px" height="372px" viewBox="0 0 437 372" version="1.1" xmlns="http://www.w3.org/2000/svg" xmlns:xlink="http://www.w3.org/1999/xlink">
    <!-- Generator: Sketch 47.1 (45422) - http://www.bohemiancoding.com/sketch -->
    <title>CHEMISE-All-gris</title>
    <desc>Created with Sketch.</desc>
    <defs></defs>
    <g id="Page-1" stroke="none" stroke-width="1" fill="none" fill-rule="evenodd">
        <g id="CHEMISE-All-gris" transform="translate(1.000000, 1.000000)">
            <g id="Fond" transform="translate(98.000000, 51.000000)" stroke="#000000">
                <path d="M65.5,2 C42.1666667,6.66666667 24.8333333,11.3333333 13.5,16 C2.16666667,20.6666667 -1.83333333,48.3333333 1.5,99 C5.83333333,136.333333 8,165.5 8,186.5 C8,207.5 6.16666667,242.666667 2.5,292 C25.8333333,293.333333 42.1666667,295.5 51.5,298.5 C61.3889415,301.678588 82.7571128,316.796437 106.5,317 C128.881268,317.191889 151.035122,302.279781 161,298.5 C170.666667,294.833333 187.5,292.666667 211.5,292 L208.5,241.5 C206.5,161.166667 207.166667,114 210.5,100 C213.833333,86 209,58 196,16 C183.666667,10.6666667 165.333333,6 141,2 C128.939485,0.0174496218 116.969943,0.517297377 104.5,0.5 C96.0403643,0.488265422 83.0403643,0.988265422 65.5,2 Z" id="Path-5" stroke-width="1.7" fill="#F5F6F8"></path>
                <path d="M97.75,19 L97.75,316" id="Path-11" stroke-width="1.5"></path>
                <path d="M113.75,19 L113.75,316" id="Path-11-Copy" stroke-width="1.5"></path>
            </g>
            <g id="Col" transform="translate(168.000000, 18.000000)" stroke="#000000" stroke-width="1.5" fill="#F5F6F8">
                <ellipse id="Oval-2" cx="37" cy="33" rx="32" ry="19"></ellipse>
                <path d="M1.40957176,13 L0,35.25 L23,55 C25.6434217,38.1098039 29.0220592,28.4431373 33.1359124,26 C37.2497657,23.5568627 26.6743188,19.2235294 1.40957176,13 Z" id="Path-2"></path>
                <path d="M40.4095718,13 L39,35.25 L62.5,55 C64.8100884,38.1098039 68.0220592,28.4431373 72.1359124,26 C76.2497657,23.5568627 65.6743188,19.2235294 40.4095718,13 Z" id="Path-2-Copy" transform="translate(56.000000, 34.000000) scale(-1, 1) translate(-56.000000, -34.000000) "></path>
                <ellipse id="Oval" cx="36.5" cy="13" rx="34.5" ry="13"></ellipse>
                <path d="M36.2676394,25.9997113 C36.3450327,25.9999037 36.4224865,26 36.5,26 C37.6326591,26 38.7525698,25.9794326 39.8572451,25.9392349 C38.6833748,25.976549 37.485147,25.9970839 36.2676394,25.9997113 Z M9.41422206,21.05274 C4.7713037,18.838402 2,16.0411509 2,13 C2,5.82029825 17.4461761,0 36.5,0 C55.5538239,0 71,5.82029825 71,13 C71,16.4579734 67.4169616,19.6006069 61.5735302,21.9295124 C62.4984065,21.3239773 63,20.6750057 63,20 C63,16.6862915 50.9116882,14 36,14 C21.0883118,14 9,16.6862915 9,20 C9,20.3591577 9.1420062,20.7109448 9.41422206,21.05274 Z" id="Combined-Shape"></path>
            </g>
            <g id="Boutons" transform="translate(201.000000, 57.000000)" stroke="#000000" fill="#F5F6F8">
                <circle id="Oval-2-Copy" cx="3" cy="3" r="3"></circle>
                <circle id="Oval-2-Copy-2" cx="3" cy="33" r="3"></circle>
                <circle id="Oval-2-Copy-3" cx="3" cy="73" r="3"></circle>
                <circle id="Oval-2-Copy-4" cx="3" cy="112" r="3"></circle>
                <circle id="Oval-2-Copy-5" cx="3" cy="151" r="3"></circle>
                <circle id="Oval-2-Copy-6" cx="3" cy="191" r="3"></circle>
                <circle id="Oval-2-Copy-7" cx="3" cy="230" r="3"></circle>
            </g>
            <ellipse id="Oval-4" stroke="#633993" stroke-width="1.5" cx="204" cy="17.5" rx="31" ry="9.5"></ellipse>
            <polyline id="Path-12-Copy-2" stroke="#633993" stroke-width="1.5" transform="translate(204.750000, 8.250000) scale(-1, 1) translate(-204.750000, -8.250000) " points="209.5 16.5 200 7.5 209.5 0"></polyline>
            <g id="Manche-gauche" transform="translate(0.000000, 70.000000)" stroke="#000000">
                <path d="M92.5,222.5 C100.833333,230.833333 107.166667,233.833333 111.5,231.5 C118,228 123.5,223 128.5,215 C133.5,207 140,197 133.5,190.5 C127,184 87,149 78,137.5 C69,126 64.5,118 63,115 C61.5,112 57.5,103 64.5,98.5 C71.5,94 78.5,92 84,90 C89.5,88 98.5,84.5 102.5,71.5 C106.5,58.5 107.5,51.5 107.5,26.5 C107.5,9.83333333 107.5,1 107.5,0 C81.3432796,18.6666667 60.6766129,35.3333333 45.5,50 C22.7350806,72 -13,96.5 5.5,125 C17.8333333,144 46.8333333,176.5 92.5,222.5 Z" id="Path-4" stroke-width="1.8" fill="#F5F6F8"></path>
                <polyline id="Path-3" points="60 106 54.8846812 104.426056 47 102"></polyline>
                <path d="M60,106 L43.5,107" id="Path-3-Copy"></path>
                <polyline id="Path-6" points="89 181.5 51 145.5 49 135.5 60 137 97 172"></polyline>
                <path d="M107,166.5 C97.5,171 83.5,182.5 76.5,205.5" id="Path-7"></path>
                <path d="M97.5,173.5 L120,193 L119,201.5 C109.666667,211.166667 105.333333,219.166667 106,225.5" id="Path-8"></path>
                <path d="M119.5,195.5 C122.5,198.833333 126.666667,198.666667 132,195" id="Path-9"></path>
                <path d="M107.5,188 C102.833333,191.666667 101,194 102,195 C102.685441,195.685441 104.031509,195.446758 105.5,193 C105.949274,192.251432 106.615941,190.584766 107.5,188 Z" id="Path-10"></path>
            </g>
            <g id="Manche-droite" transform="translate(332.500000, 183.500000) scale(-1, 1) translate(-332.500000, -183.500000) translate(264.000000, 67.000000)" stroke="#000000">
                <path d="M92.5,222.5 C100.833333,230.833333 107.166667,233.833333 111.5,231.5 C118,228 123.5,223 128.5,215 C133.5,207 140,197 133.5,190.5 C127,184 87,149 78,137.5 C69,126 64.5,118 63,115 C61.5,112 57.5,103 64.5,98.5 C71.5,94 78.5,92 84,90 C89.5,88 98.5,84.5 102.5,71.5 C106.5,58.5 107.5,51.5 107.5,26.5 C107.5,9.83333333 107.5,1 107.5,0 C81.3432796,18.6666667 60.6766129,35.3333333 45.5,50 C22.7350806,72 -13,96.5 5.5,125 C17.8333333,144 46.8333333,176.5 92.5,222.5 Z" id="Path-4" stroke-width="1.8" fill="#F5F6F8"></path>
                <polyline id="Path-3" points="60 106 54.8846812 104.426056 47 102"></polyline>
                <path d="M60,106 L43.5,107" id="Path-3-Copy"></path>
                <polyline id="Path-6" points="89 181.5 51 145.5 49 135.5 60 137 97 172"></polyline>
                <path d="M107,166.5 C97.5,171 83.5,182.5 76.5,205.5" id="Path-7"></path>
                <path d="M97.5,173.5 L120,193 L119,201.5 C109.666667,211.166667 105.333333,219.166667 106,225.5" id="Path-8"></path>
                <path d="M119.5,195.5 C122.5,198.833333 126.666667,198.666667 132,195" id="Path-9"></path>
                <path d="M107.5,188 C102.833333,191.666667 101,194 102,195 C102.685441,195.685441 104.031509,195.446758 105.5,193 C105.949274,192.251432 106.615941,190.584766 107.5,188 Z" id="Path-10"></path>
            </g>
            <path d="M308,50.5 C428.333333,117.833333 462.833333,174.833333 411.5,221.5 C360.166667,268.166667 328.333333,297 316,308" id="Path-31" stroke="#633993" stroke-width="1.5"></path>
            <path d="M319.370043,309.894602 C319.513869,310.709753 319.434331,310.738702 319.13143,309.98145 C318.828529,309.224198 317.834894,306.494207 316.150524,301.791478 L325.370043,300.894602" id="Path-32" stroke="#633993" stroke-width="1.5" transform="translate(320.760284, 305.711539) rotate(-70.000000) translate(-320.760284, -305.711539) "></path>
            <polyline id="Path-32-Copy" stroke="#633993" stroke-width="1.5" transform="translate(312.267278, 52.267278) scale(1, -1) rotate(-55.000000) translate(-312.267278, -52.267278) " points="310.767278 56.7672782 307.767278 49.2672782 316.767278 47.7672782"></polyline>
            <g id="TraitV-Copy" transform="translate(246.000000, 35.000000)" stroke-width="1.5">
                <path d="M9.5,0.5 C12.1666667,74.3958333 13.5,129.8125 13.5,166.75 C13.5,203.6875 12.1666667,259.104167 9.5,333" id="Path-25" stroke="#672C93"></path>
                <polyline id="Path-26" stroke="#633993" points="0.5 12 9.5 2 18.5 12"></polyline>
                <polyline id="Path-26-Copy" stroke="#633993" transform="translate(10.000000, 329.000000) scale(1, -1) translate(-10.000000, -329.000000) " points="1 334 10 324 19 334"></polyline>
            </g>
        </g>
    </g>
</svg>