<?xml version="1.0" encoding="UTF-8"?>
<svg width="96px" height="49px" viewBox="0 0 96 49" version="1.1" xmlns="http://www.w3.org/2000/svg" xmlns:xlink="http://www.w3.org/1999/xlink">
    <!-- Generator: Sketch 49 (51002) - http://www.bohemiancoding.com/sketch -->
    <title>logo-swann-elegance-white</title>
    <desc>Created with Sketch.</desc>
    <defs></defs>
    <g id="Page-1" stroke="none" stroke-width="1" fill="none" fill-rule="evenodd">
        <g id="logo-swann-elegance-white" fill="#FFFFFF" fill-rule="nonzero">
            <rect id="Rectangle-path" x="41" y="34" width="13" height="2"></rect>
            <g id="Group" transform="translate(26.000000, 39.000000)">
                <path d="M2.5965,0.184736842 C2.5755,0.296842105 2.5125,0.474210526 2.4495,0.695789474 C2.386,0.94 2.323,1.22842105 2.2385,1.53947368 C2.1335,1.84894737 2.049,2.18263158 1.9435,2.55947368 C1.838,2.91473684 1.7325,3.26947368 1.6275,3.64578947 C1.5435,4.02315789 1.438,4.37842105 1.332,4.73263158 C1.248,5.06526316 1.1635,5.37631579 1.0795,5.66421053 C1.016,5.95263158 0.9535,6.19684211 0.911,6.39684211 C0.8695,6.57473684 0.848,6.70684211 0.848,6.77315789 C0.848,6.81842105 0.8695,6.88421053 0.8905,6.90684211 C0.9115,6.95052632 0.9535,6.97368421 0.9955,6.99631579 C1.038,7.01736842 1.08,7.04 1.1225,7.04 C1.164,7.04 1.2065,7.06157895 1.2275,7.06157895 C1.3325,7.06157895 1.417,7.01736842 1.5225,6.97368421 C1.6275,6.90684211 1.712,6.84 1.7755,6.77315789 C1.8595,6.70684211 1.9225,6.64105263 1.986,6.59578947 C2.0285,6.52894737 2.049,6.50736842 2.07,6.50736842 C2.091,6.50736842 2.1125,6.52894737 2.1125,6.55157895 C2.1125,6.57473684 2.049,6.64105263 1.965,6.75210526 C1.881,6.86263158 1.754,6.97368421 1.628,7.08421053 C1.4805,7.19526316 1.3325,7.30578947 1.185,7.39526316 C1.038,7.50631579 0.8905,7.55 0.7635,7.55 C0.6375,7.55 0.511,7.48315789 0.3845,7.37263158 C0.2795,7.26157895 0.216,7.12842105 0.216,6.95052632 C0.216,6.90684211 0.237,6.79631579 0.3,6.59578947 C0.3415,6.39684211 0.426,6.13 0.5105,5.81894737 C0.5945,5.48684211 0.679,5.13157895 0.8055,4.68894737 C0.9315,4.26631579 1.0585,3.82315789 1.1845,3.33526316 C1.311,2.84684211 1.438,2.33736842 1.585,1.78210526 C1.7325,1.25 1.8595,0.717894737 2.0065,0.185263158 L2.5965,0.185263158 L2.5965,0.184736842 Z" id="Shape"></path>
                <path d="M3.145,2.49157895 C3.229,2.42631579 3.3345,2.33684211 3.4185,2.24894737 C3.5235,2.15947368 3.608,2.07105263 3.692,1.95947368 C3.7765,1.84842105 3.8395,1.73789474 3.903,1.60421053 C3.9445,1.49315789 3.966,1.36105263 3.966,1.20526316 C3.966,1.09421053 3.9445,1.00631579 3.882,0.916842105 C3.819,0.828947368 3.7345,0.783157895 3.65,0.783157895 L3.65,0.739473684 C3.755,0.628421053 3.8395,0.539473684 3.9235,0.451052632 C4.008,0.384210526 4.1345,0.34 4.2605,0.34 C4.345,0.34 4.429,0.384210526 4.4925,0.473684211 C4.5765,0.561578947 4.5975,0.672631579 4.5975,0.783157895 C4.5975,1.00631579 4.556,1.20526316 4.4505,1.38263158 C4.3665,1.58263158 4.2605,1.73789474 4.1135,1.89368421 C3.966,2.04842105 3.8185,2.18210526 3.6495,2.29263158 C3.502,2.42631579 3.3335,2.51421053 3.207,2.60368421 L3.145,2.49157895 Z" id="Shape"></path>
                <path d="M4.514,6.30736842 C4.514,6.52894737 4.5565,6.72894737 4.6615,6.88421053 C4.7455,7.01736842 4.8935,7.08421053 5.104,7.08421053 C5.21,7.08421053 5.315,7.06157895 5.42,7.01736842 C5.5045,6.97368421 5.5885,6.92947368 5.673,6.86263158 C5.757,6.79631579 5.8205,6.72894737 5.905,6.64105263 C5.9685,6.55157895 6.031,6.48526316 6.0945,6.41842105 C6.1155,6.39684211 6.137,6.35157895 6.158,6.33 C6.179,6.30736842 6.1995,6.28631579 6.1995,6.28631579 C6.242,6.28631579 6.263,6.30736842 6.263,6.33 C6.263,6.37421053 6.221,6.44105263 6.1155,6.57473684 C6.0105,6.70684211 5.884,6.84 5.7365,6.99631579 C5.589,7.12842105 5.3995,7.26157895 5.21,7.37263158 C5.02,7.48315789 4.8095,7.55 4.62,7.55 C4.388,7.55 4.1985,7.46210526 4.0715,7.30578947 C3.945,7.15105263 3.882,6.95052632 3.882,6.66263158 C3.882,6.44105263 3.903,6.21947368 3.987,5.97526316 C4.0505,5.70842105 4.1555,5.48684211 4.2605,5.24263158 C4.3665,5.02105263 4.5135,4.79789474 4.661,4.57684211 C4.8085,4.35526316 4.9565,4.17736842 5.125,4 C5.2935,3.84526316 5.462,3.71157895 5.631,3.62368421 C5.778,3.51157895 5.9465,3.46736842 6.0735,3.46736842 C6.347,3.46736842 6.474,3.62368421 6.474,3.95631579 C6.474,4.17736842 6.411,4.37789474 6.263,4.55526316 C6.137,4.73263158 5.9685,4.88736842 5.778,5.02105263 C5.5885,5.15315789 5.378,5.24263158 5.188,5.33210526 C4.9775,5.42 4.809,5.46421053 4.6825,5.50947368 C4.6405,5.62 4.598,5.75368421 4.5565,5.90842105 C4.536,6.06315789 4.514,6.19684211 4.514,6.30736842 Z M5.8845,4.11105263 C5.8845,4.02315789 5.8425,3.95684211 5.8005,3.93368421 C5.758,3.88947368 5.695,3.88947368 5.6105,3.88947368 C5.5055,3.88947368 5.421,3.93368421 5.316,4.04473684 C5.232,4.15684211 5.1265,4.28894737 5.0635,4.44368421 C4.979,4.59947368 4.916,4.75473684 4.8525,4.91052632 C4.811,5.08789474 4.7685,5.22157895 4.7265,5.30947368 C4.8315,5.28736842 4.9365,5.24315789 5.0845,5.17631579 C5.2115,5.08789474 5.3375,4.99894737 5.4425,4.88789474 C5.569,4.77736842 5.6745,4.66684211 5.7585,4.53315789 C5.842,4.39947368 5.8845,4.26631579 5.8845,4.11105263 Z M5.6945,3.02421053 L6.896,1.40578947 C6.917,1.38315789 6.938,1.36157895 6.9805,1.31631579 C7.0015,1.29526316 7.0435,1.29526316 7.1065,1.29526316 C7.191,1.29526316 7.254,1.31631579 7.2965,1.40578947 C7.359,1.47263158 7.4015,1.56052632 7.4015,1.65 C7.4015,1.76052632 7.338,1.87157895 7.254,1.93842105 C7.149,2.02631579 7.0435,2.11578947 6.896,2.24947368 L5.969,3.02473684 L5.6945,3.02473684 L5.6945,3.02421053 Z" id="Shape"></path>
                <path d="M9.151,0.184736842 C9.1085,0.296842105 9.0665,0.474210526 9.0035,0.695789474 C8.94,0.94 8.856,1.22842105 8.7715,1.53947368 C8.687,1.84894737 8.582,2.18263158 8.4975,2.55947368 C8.3925,2.91473684 8.2865,3.26947368 8.1815,3.64578947 C8.0765,4.02315789 7.992,4.37842105 7.887,4.73263158 C7.781,5.06526316 7.697,5.37631579 7.634,5.66421053 C7.55,5.95263158 7.5075,6.19684211 7.4655,6.39684211 C7.423,6.57473684 7.402,6.70684211 7.402,6.77315789 C7.402,6.81842105 7.402,6.88421053 7.4435,6.90684211 C7.465,6.95052632 7.486,6.97368421 7.5275,6.99631579 C7.57,7.01736842 7.612,7.04 7.6545,7.04 C7.7175,7.04 7.7385,7.06157895 7.7805,7.06157895 C7.8865,7.06157895 7.9705,7.01736842 8.076,6.97368421 C8.16,6.90684211 8.2445,6.84 8.329,6.77315789 C8.413,6.70684211 8.4765,6.64105263 8.5185,6.59578947 C8.5815,6.52894737 8.6025,6.50736842 8.6025,6.50736842 C8.645,6.50736842 8.645,6.52894737 8.645,6.55157895 C8.645,6.57473684 8.6025,6.64105263 8.5185,6.75210526 C8.4135,6.86263158 8.308,6.97368421 8.1605,7.08421053 C8.034,7.19526316 7.887,7.30578947 7.739,7.39526316 C7.5915,7.50631579 7.4435,7.55 7.3175,7.55 C7.191,7.55 7.0645,7.48315789 6.938,7.37263158 C6.833,7.26157895 6.7695,7.12842105 6.7695,6.95052632 C6.7695,6.90684211 6.7905,6.79631579 6.854,6.59578947 C6.896,6.39684211 6.9595,6.13 7.044,5.81894737 C7.1285,5.48684211 7.2335,5.13157895 7.3595,4.68894737 C7.4655,4.26631579 7.5915,3.82315789 7.739,3.33526316 C7.865,2.84684211 7.992,2.33736842 8.1395,1.78210526 C8.2655,1.25 8.413,0.717894737 8.539,0.185263158 L9.151,0.185263158 L9.151,0.184736842 Z" id="Shape"></path>
                <path d="M9.277,6.30736842 C9.277,6.52894737 9.3195,6.72894737 9.4245,6.88421053 C9.5085,7.01736842 9.6565,7.08421053 9.846,7.08421053 C9.9725,7.08421053 10.078,7.06157895 10.183,7.01736842 C10.267,6.97368421 10.3515,6.92947368 10.436,6.86263158 C10.52,6.79631579 10.5835,6.72894737 10.668,6.64105263 C10.7315,6.55157895 10.794,6.48526316 10.8575,6.41842105 C10.8785,6.39684211 10.9,6.35157895 10.921,6.33 C10.942,6.30736842 10.9625,6.28631579 10.9625,6.28631579 C11.005,6.28631579 11.026,6.30736842 11.026,6.33 C11.026,6.37421053 10.9625,6.44105263 10.8785,6.57473684 C10.7735,6.70684211 10.647,6.84 10.4995,6.99631579 C10.352,7.12842105 10.1625,7.26157895 9.973,7.37263158 C9.783,7.48315789 9.5725,7.55 9.3825,7.55 C9.1515,7.55 8.961,7.46210526 8.835,7.30578947 C8.7085,7.15105263 8.6455,6.95052632 8.6455,6.66263158 C8.6455,6.44105263 8.6665,6.21947368 8.7505,5.97526316 C8.814,5.70842105 8.898,5.48684211 9.024,5.24263158 C9.129,5.02105263 9.277,4.79789474 9.4245,4.57684211 C9.572,4.35526316 9.72,4.17736842 9.8885,4 C10.057,3.84526316 10.2255,3.71157895 10.3945,3.62368421 C10.5415,3.51157895 10.71,3.46736842 10.837,3.46736842 C11.1105,3.46736842 11.2375,3.62368421 11.2375,3.95631579 C11.2375,4.17736842 11.174,4.37789474 11.0265,4.55526316 C10.9005,4.73263158 10.732,4.88736842 10.5415,5.02105263 C10.352,5.15315789 10.1415,5.24263158 9.9515,5.33210526 C9.741,5.42 9.5725,5.46421053 9.446,5.50947368 C9.404,5.62 9.3615,5.75368421 9.32,5.90842105 C9.298,6.06315789 9.277,6.19684211 9.277,6.30736842 Z M10.647,4.11105263 C10.647,4.02315789 10.6045,3.95684211 10.563,3.93368421 C10.5205,3.88947368 10.4575,3.88947368 10.373,3.88947368 C10.268,3.88947368 10.1835,3.93368421 10.0785,4.04473684 C9.9945,4.15684211 9.889,4.28894737 9.826,4.44368421 C9.7415,4.59947368 9.6785,4.75473684 9.615,4.91052632 C9.5515,5.08789474 9.531,5.22157895 9.489,5.30947368 C9.594,5.28736842 9.699,5.24315789 9.826,5.17631579 C9.9735,5.08789474 10.0995,4.99894737 10.205,4.88789474 C10.3315,4.77736842 10.437,4.66684211 10.521,4.53315789 C10.605,4.39947368 10.647,4.26631579 10.647,4.11105263 Z M10.457,3.02421053 L11.6585,1.40578947 C11.6795,1.38315789 11.7005,1.36157895 11.743,1.31631579 C11.764,1.29526316 11.8055,1.29526316 11.869,1.29526316 C11.9325,1.29526316 12.0165,1.31631579 12.0585,1.40578947 C12.122,1.47263158 12.1645,1.56052632 12.1645,1.65 C12.1645,1.76052632 12.101,1.87157895 12.017,1.93842105 C11.912,2.02631579 11.806,2.11578947 11.659,2.24947368 L10.732,3.02473684 L10.457,3.02473684 L10.457,3.02421053 Z" id="Shape"></path>
                <path d="M14.7565,3.37842105 C14.651,3.73368421 14.5245,4.15684211 14.4195,4.59894737 C14.293,5.04368421 14.1665,5.50894737 14.04,5.95210526 C13.914,6.41789474 13.7665,6.86210526 13.6395,7.28368421 C13.4925,7.70526316 13.345,8.06 13.1765,8.37052632 C13.05,8.56947368 12.9235,8.74684211 12.797,8.92421053 C12.65,9.10210526 12.5025,9.25789474 12.3335,9.39 C12.165,9.50105263 11.9965,9.61315789 11.8065,9.67842105 C11.617,9.76789474 11.4275,9.79052632 11.2165,9.79052632 C11.154,9.79052632 11.0695,9.79052632 10.985,9.76789474 C10.901,9.72263158 10.8375,9.70105263 10.774,9.63421053 C10.7105,9.59052632 10.648,9.52368421 10.6265,9.43526316 C10.585,9.36736842 10.564,9.25789474 10.564,9.14578947 C10.564,9.01263158 10.585,8.90315789 10.648,8.79105263 C10.7105,8.70315789 10.795,8.65736842 10.901,8.65736842 C11.027,8.65736842 11.1115,8.68 11.1955,8.76947368 C11.2795,8.83526316 11.322,8.96842105 11.322,9.14578947 C11.322,9.19 11.3005,9.25789474 11.3005,9.30210526 C11.3005,9.36736842 11.3005,9.43526316 11.2795,9.47947368 C11.3005,9.52368421 11.343,9.54526316 11.4065,9.56736842 C11.469,9.59052632 11.5115,9.59052632 11.5535,9.59052632 C11.722,9.59052632 11.8905,9.52368421 12.0385,9.39 C12.186,9.25789474 12.312,9.10210526 12.439,8.88052632 C12.5655,8.68 12.692,8.43578947 12.776,8.17052632 C12.881,7.90368421 12.987,7.65894737 13.0715,7.39368421 C13.1555,7.12684211 13.2185,6.88263158 13.3025,6.66105263 C13.366,6.41684211 13.4295,6.23894737 13.471,6.08473684 L13.45,6.08473684 C13.4085,6.21789474 13.324,6.39526316 13.218,6.55 C13.113,6.72736842 12.987,6.88263158 12.839,7.03842105 C12.7125,7.17210526 12.565,7.30421053 12.4175,7.39368421 C12.27,7.50473684 12.122,7.54842105 11.9745,7.54842105 C11.785,7.54842105 11.659,7.46052632 11.5745,7.32684211 C11.4905,7.19368421 11.448,6.99473684 11.448,6.79473684 C11.448,6.55 11.469,6.28473684 11.553,6.04052632 C11.637,5.77368421 11.7215,5.52894737 11.848,5.28526316 C11.974,5.04210526 12.122,4.79631579 12.2695,4.57526316 C12.438,4.35368421 12.6065,4.17578947 12.775,3.99842105 C12.9435,3.84368421 13.112,3.71 13.3015,3.62210526 C13.47,3.51 13.618,3.46578947 13.7655,3.46578947 C13.8495,3.46578947 13.934,3.48842105 13.9975,3.53263158 C14.06,3.57684211 14.1235,3.59947368 14.187,3.62210526 L14.7565,3.37842105 Z M12.0585,6.55157895 C12.0585,6.70684211 12.101,6.84 12.143,6.95052632 C12.185,7.04 12.2905,7.08421053 12.438,7.08421053 C12.543,7.08421053 12.649,7.04 12.7545,6.97368421 C12.8595,6.88421053 12.9645,6.77315789 13.049,6.64105263 C13.133,6.50736842 13.2175,6.37421053 13.281,6.24052632 C13.365,6.08631579 13.4075,5.97526316 13.4495,5.86473684 C13.492,5.77526316 13.5335,5.68684211 13.576,5.53052632 C13.618,5.37631579 13.6605,5.22105263 13.723,5.06526316 C13.7655,4.88736842 13.807,4.73263158 13.8495,4.59894737 C13.891,4.44315789 13.9125,4.35526316 13.9125,4.28842105 C13.9125,4.22157895 13.891,4.17736842 13.8495,4.11052632 C13.807,4.06684211 13.7655,4.02263158 13.702,3.97842105 C13.6385,3.95631579 13.576,3.91052632 13.4915,3.91052632 C13.4285,3.88894737 13.365,3.88894737 13.3015,3.88894737 C13.1545,3.88894737 13.007,3.97842105 12.859,4.2 C12.7115,4.42157895 12.5855,4.66631579 12.4585,4.95421053 C12.3535,5.24263158 12.248,5.55368421 12.1845,5.84157895 C12.101,6.15263158 12.0585,6.37421053 12.0585,6.55157895 Z" id="Shape"></path>
                <path d="M18.149,3.53473684 C18.1075,3.62421053 18.065,3.75631579 18.0015,3.95684211 C17.939,4.13421053 17.8755,4.35578947 17.812,4.59947368 C17.728,4.82105263 17.6645,5.06578947 17.6015,5.30947368 C17.5175,5.57684211 17.454,5.79842105 17.3905,6.01947368 C17.349,6.22 17.2855,6.39736842 17.2645,6.55210526 C17.222,6.70736842 17.2015,6.79684211 17.2015,6.81894737 C17.2015,6.93 17.243,6.99684211 17.3275,7.04052632 C17.391,7.08473684 17.475,7.10736842 17.5385,7.10736842 C17.6225,7.10736842 17.686,7.08473684 17.7705,7.01789474 C17.8545,6.97421053 17.9175,6.90736842 17.981,6.84052632 C18.044,6.77368421 18.1075,6.70736842 18.1495,6.64157895 C18.192,6.59631579 18.2335,6.57526316 18.2555,6.57526316 C18.297,6.57526316 18.318,6.57526316 18.318,6.59631579 C18.318,6.61894737 18.276,6.68578947 18.213,6.79684211 C18.1285,6.88473684 18.0235,6.99684211 17.9175,7.10736842 C17.7915,7.21789474 17.6645,7.32894737 17.496,7.39578947 C17.349,7.50684211 17.1805,7.55052632 17.012,7.55052632 C16.9275,7.55052632 16.822,7.50684211 16.7165,7.43947368 C16.6115,7.37315789 16.548,7.26210526 16.548,7.10736842 C16.548,7.04052632 16.569,6.95105263 16.5905,6.86315789 C16.6325,6.75263158 16.675,6.64157895 16.7165,6.52947368 C16.759,6.41894737 16.8005,6.33052632 16.843,6.22 C16.8845,6.10894737 16.9055,6.01947368 16.927,5.97578947 L16.927,5.95263158 C16.843,6.08631579 16.737,6.26368421 16.611,6.44105263 C16.4845,6.64105263 16.358,6.81842105 16.2105,6.97368421 C16.063,7.12842105 15.8945,7.26157895 15.726,7.37263158 C15.579,7.48315789 15.4105,7.55 15.2625,7.55 C15.1785,7.55 15.094,7.50631579 15.0305,7.46210526 C14.967,7.41684211 14.9255,7.35105263 14.883,7.28473684 C14.841,7.19526316 14.8195,7.10684211 14.799,7.01736842 C14.778,6.90684211 14.778,6.81842105 14.778,6.72894737 C14.778,6.46368421 14.8195,6.21947368 14.904,5.95263158 C14.988,5.68684211 15.115,5.44263158 15.2415,5.19842105 C15.3885,4.97578947 15.536,4.73263158 15.705,4.53263158 C15.8735,4.31105263 16.063,4.13368421 16.2315,3.97842105 C16.4,3.82263158 16.5685,3.68894737 16.7165,3.60105263 C16.885,3.51157895 17.012,3.46736842 17.117,3.46736842 C17.2015,3.46736842 17.2855,3.51157895 17.349,3.57842105 C17.433,3.66789474 17.475,3.75578947 17.496,3.86684211 C17.5385,3.73315789 17.58,3.62368421 17.6015,3.53421053 L18.149,3.53421053 L18.149,3.53473684 Z M15.41,6.61842105 C15.41,6.75210526 15.431,6.86263158 15.515,6.92947368 C15.578,7.01736842 15.6625,7.06157895 15.768,7.06157895 C15.873,7.06157895 16,6.99631579 16.126,6.90684211 C16.231,6.81842105 16.358,6.70684211 16.463,6.55157895 C16.568,6.41842105 16.6525,6.26368421 16.737,6.10842105 C16.821,5.95263158 16.8635,5.81894737 16.927,5.68684211 C16.927,5.64157895 16.969,5.55368421 17.0115,5.42 C17.053,5.30894737 17.0955,5.17578947 17.1375,5.04368421 C17.18,4.91 17.2215,4.77684211 17.264,4.66631579 C17.285,4.55526316 17.306,4.48842105 17.306,4.44315789 C17.306,4.37789474 17.285,4.28842105 17.2425,4.22157895 C17.2215,4.15631579 17.1585,4.08789474 17.0955,4.02263158 C17.053,3.97842105 16.9895,3.93315789 16.9055,3.91052632 C16.843,3.86684211 16.7795,3.86684211 16.737,3.86684211 C16.6525,3.86684211 16.611,3.86684211 16.5685,3.88894737 C16.506,3.88894737 16.4845,3.91052632 16.4425,3.93315789 C16.4215,3.97842105 16.3795,4.02263158 16.3585,4.06684211 C16.3375,4.11052632 16.2955,4.15631579 16.2535,4.24421053 C16.1695,4.39894737 16.0635,4.57684211 15.9585,4.75421053 C15.874,4.95421053 15.769,5.15315789 15.6845,5.35315789 C15.6005,5.57631579 15.537,5.79789474 15.495,5.99684211 C15.431,6.21947368 15.41,6.41842105 15.41,6.61842105 Z" id="Shape"></path>
                <path d="M20.172,3.60157895 L19.6035,5.53052632 L19.6245,5.55368421 C19.688,5.35315789 19.793,5.15315789 19.919,4.91 C20.046,4.68842105 20.172,4.44315789 20.3405,4.24421053 C20.488,4.02263158 20.6565,3.84526316 20.825,3.68894737 C21.015,3.55578947 21.184,3.46736842 21.3735,3.46736842 C21.4365,3.46736842 21.4995,3.49 21.584,3.51157895 C21.647,3.53421053 21.7105,3.55578947 21.774,3.60105263 C21.816,3.64526316 21.879,3.71157895 21.9,3.77842105 C21.9425,3.86684211 21.9635,3.95631579 21.9635,4.04421053 C21.9635,4.13368421 21.9425,4.24421053 21.9,4.39894737 C21.858,4.55526316 21.816,4.71 21.7525,4.88736842 C21.69,5.06526316 21.6265,5.24263158 21.563,5.44263158 C21.4995,5.64157895 21.437,5.81894737 21.3735,5.99684211 C21.31,6.15263158 21.2685,6.33 21.226,6.46368421 C21.1845,6.59578947 21.1845,6.70684211 21.1845,6.77315789 C21.1845,6.86263158 21.2055,6.92947368 21.247,6.99631579 C21.31,7.04 21.3735,7.08421053 21.437,7.08421053 C21.5215,7.08421053 21.584,7.06157895 21.6475,7.01736842 C21.711,6.97368421 21.774,6.95052632 21.837,6.90684211 C21.8795,6.84 21.9215,6.81842105 21.964,6.77315789 C22.0055,6.72894737 22.027,6.72894737 22.048,6.72894737 C22.0695,6.72894737 22.0695,6.72894737 22.09,6.72894737 C22.09,6.75210526 22.1115,6.75210526 22.1115,6.77315789 C22.1115,6.79631579 22.0695,6.84 21.985,6.92947368 C21.9215,6.99631579 21.837,7.08421053 21.732,7.15105263 C21.627,7.23894737 21.5,7.30578947 21.374,7.37263158 C21.2475,7.43894737 21.121,7.46210526 21.016,7.46210526 C20.8895,7.46210526 20.784,7.41684211 20.6575,7.35105263 C20.5525,7.28473684 20.489,7.15105263 20.489,6.97368421 C20.489,6.90684211 20.51,6.79631579 20.5525,6.64105263 C20.594,6.50736842 20.6365,6.35157895 20.7,6.17421053 C20.7625,5.99684211 20.826,5.81894737 20.8895,5.62 C20.953,5.44263158 21.016,5.26526316 21.079,5.08736842 C21.1425,4.91 21.185,4.75421053 21.2265,4.59894737 C21.269,4.46578947 21.269,4.35526316 21.269,4.26578947 C21.269,4.04421053 21.185,3.91052632 20.9945,3.91052632 C20.8685,3.91052632 20.7415,3.97842105 20.6155,4.08789474 C20.4885,4.22157895 20.3625,4.37789474 20.236,4.57684211 C20.11,4.77684211 19.983,4.99842105 19.878,5.24263158 C19.7515,5.48684211 19.646,5.73105263 19.541,5.99684211 C19.436,6.24052632 19.3515,6.50736842 19.288,6.75210526 C19.204,6.99631579 19.1405,7.21736842 19.0985,7.41684211 L18.5505,7.41684211 C18.719,6.77315789 18.8875,6.13052632 19.0355,5.51 C19.225,4.86684211 19.3935,4.24526316 19.562,3.60210526 L20.172,3.60210526 L20.172,3.60157895 Z" id="Shape"></path>
                <path d="M23.08,6.33 C23.08,6.59578947 23.123,6.79631579 23.228,6.92947368 C23.3335,7.06157895 23.502,7.12842105 23.692,7.12842105 C23.7975,7.12842105 23.9025,7.10684211 23.9875,7.01736842 C24.093,6.95052632 24.198,6.86263158 24.2815,6.77315789 C24.3665,6.68526316 24.43,6.59578947 24.4935,6.52894737 C24.5355,6.44105263 24.577,6.41842105 24.599,6.41842105 C24.619,6.41842105 24.619,6.41842105 24.6405,6.41842105 C24.662,6.41842105 24.662,6.44105263 24.662,6.48526316 C24.662,6.52894737 24.619,6.59578947 24.514,6.72894737 C24.43,6.84 24.3035,6.95052632 24.156,7.08421053 C24.0295,7.19526316 23.861,7.30578947 23.692,7.39526316 C23.5235,7.50631579 23.3755,7.55 23.2065,7.55 C22.9545,7.55 22.764,7.43894737 22.617,7.21736842 C22.47,6.99631579 22.406,6.72894737 22.406,6.44105263 C22.406,6.13 22.47,5.81894737 22.5955,5.46473684 C22.7425,5.13210526 22.9115,4.79842105 23.123,4.51157895 C23.3335,4.20052632 23.5655,3.95684211 23.819,3.75631579 C24.071,3.57894737 24.325,3.46789474 24.5555,3.46789474 C24.704,3.46789474 24.8095,3.53473684 24.893,3.66842105 C24.9995,3.77894737 25.0195,3.93368421 25.0195,4.11105263 C25.0195,4.26631579 24.9995,4.39947368 24.956,4.53315789 C24.893,4.66684211 24.8095,4.71052632 24.662,4.71052632 C24.577,4.71052632 24.514,4.68894737 24.4505,4.64368421 C24.4085,4.57736842 24.3665,4.48894737 24.3665,4.37842105 C24.3665,4.33421053 24.387,4.26631579 24.4085,4.22210526 C24.43,4.17789474 24.4505,4.15684211 24.4935,4.11105263 C24.472,4.00052632 24.4085,3.91105263 24.345,3.86736842 C24.2615,3.82315789 24.198,3.80157895 24.093,3.80157895 C24.008,3.80157895 23.9025,3.84578947 23.819,3.93368421 C23.734,4.04473684 23.6505,4.15684211 23.5655,4.31157895 C23.502,4.46631579 23.4385,4.64368421 23.3755,4.84421053 C23.313,5.02157895 23.2485,5.22157895 23.2065,5.39894737 C23.165,5.57684211 23.1445,5.75421053 23.1015,5.93157895 C23.08,6.08631579 23.08,6.21947368 23.08,6.33" id="Shape"></path>
                <path d="M25.673,6.30736842 C25.673,6.52894737 25.7145,6.72894737 25.7985,6.88421053 C25.883,7.01736842 26.0305,7.08421053 26.241,7.08421053 C26.3475,7.08421053 26.4525,7.06157895 26.558,7.01736842 C26.6425,6.97368421 26.747,6.92947368 26.8115,6.86263158 C26.895,6.79631579 26.98,6.72894737 27.042,6.64105263 C27.1055,6.55157895 27.169,6.48526316 27.2525,6.41842105 C27.274,6.39684211 27.296,6.35157895 27.317,6.33 C27.317,6.30736842 27.3375,6.28631579 27.3375,6.28631579 C27.3795,6.28631579 27.401,6.30736842 27.401,6.33 C27.401,6.37421053 27.359,6.44105263 27.2525,6.57473684 C27.169,6.70684211 27.042,6.84 26.8735,6.99631579 C26.7265,7.12842105 26.558,7.26157895 26.3475,7.37263158 C26.1575,7.48315789 25.967,7.55 25.7565,7.55 C25.5245,7.55 25.356,7.46210526 25.209,7.30578947 C25.082,7.15105263 25.0185,6.95052632 25.0185,6.66263158 C25.0185,6.44105263 25.0605,6.21947368 25.124,5.97526316 C25.1875,5.70842105 25.2925,5.48684211 25.398,5.24263158 C25.5245,5.02105263 25.6515,4.79789474 25.7985,4.57684211 C25.947,4.35526316 26.1155,4.17736842 26.284,4 C26.431,3.84526316 26.5995,3.71157895 26.768,3.62368421 C26.9155,3.51157895 27.084,3.46736842 27.232,3.46736842 C27.486,3.46736842 27.6115,3.62368421 27.6115,3.95631579 C27.6115,4.17736842 27.548,4.37789474 27.401,4.55526316 C27.274,4.73263158 27.1055,4.88736842 26.9155,5.02105263 C26.7265,5.15315789 26.5365,5.24263158 26.326,5.33210526 C26.1155,5.42 25.947,5.46421053 25.82,5.50947368 C25.778,5.62 25.735,5.75368421 25.7145,5.90842105 C25.673,6.06315789 25.673,6.19684211 25.673,6.30736842 M27.0215,4.11105263 C27.0215,4.02315789 27,3.95684211 26.9365,3.93368421 C26.8945,3.88947368 26.8315,3.88947368 26.7675,3.88947368 C26.6625,3.88947368 26.5575,3.93368421 26.452,4.04473684 C26.367,4.15684211 26.2835,4.28894737 26.1985,4.44368421 C26.115,4.59947368 26.0515,4.75473684 25.988,4.91052632 C25.9465,5.08789474 25.903,5.22157895 25.8825,5.30947368 C25.9665,5.28736842 26.072,5.24315789 26.22,5.17631579 C26.347,5.08789474 26.4725,4.99894737 26.599,4.88789474 C26.7045,4.77736842 26.811,4.66684211 26.8945,4.53315789 C26.9795,4.39947368 27.0215,4.24473684 27.0215,4.11105263" id="Shape"></path>
                <path d="M32.164,0.184736842 C32.1425,0.296842105 32.079,0.474210526 32.016,0.695789474 C31.952,0.94 31.889,1.22842105 31.7835,1.53947368 C31.7,1.84894737 31.615,2.18263158 31.51,2.55947368 C31.4045,2.91473684 31.2995,3.26947368 31.194,3.64578947 C31.0875,4.02315789 31.004,4.37842105 30.8985,4.73263158 C30.8135,5.06526316 30.73,5.37631579 30.645,5.66421053 C30.582,5.95263158 30.5195,6.19684211 30.4765,6.39684211 C30.4345,6.57473684 30.413,6.70684211 30.413,6.77315789 C30.413,6.81842105 30.4345,6.88421053 30.4565,6.90684211 C30.4765,6.95052632 30.5195,6.97368421 30.5615,6.99631579 C30.603,7.01736842 30.645,7.04 30.688,7.04 C30.73,7.04 30.772,7.06157895 30.7935,7.06157895 C30.8985,7.06157895 30.9825,7.01736842 31.0875,6.97368421 C31.194,6.90684211 31.2775,6.84 31.3415,6.77315789 C31.425,6.70684211 31.488,6.64105263 31.5515,6.59578947 C31.5935,6.52894737 31.615,6.50736842 31.6365,6.50736842 C31.657,6.50736842 31.657,6.52894737 31.657,6.55157895 C31.657,6.57473684 31.615,6.64105263 31.5315,6.75210526 C31.4465,6.86263158 31.3195,6.97368421 31.194,7.08421053 C31.046,7.19526316 30.919,7.30578947 30.7505,7.39526316 C30.603,7.50631579 30.4565,7.55 30.3295,7.55 C30.203,7.55 30.076,7.48315789 29.9505,7.37263158 C29.845,7.26157895 29.782,7.12842105 29.782,6.95052632 C29.782,6.90684211 29.802,6.79631579 29.8655,6.59578947 C29.9075,6.39684211 29.9925,6.13 30.076,5.81894737 C30.161,5.48684211 30.2445,5.13157895 30.3715,4.68894737 C30.498,4.26631579 30.625,3.82315789 30.7505,3.33526316 C30.877,2.84684211 31.004,2.33736842 31.151,1.78210526 C31.2995,1.25 31.425,0.717894737 31.573,0.185263158 L32.164,0.185263158 L32.164,0.184736842 Z" id="Shape"></path>
                <path d="M33.448,3.46789474 C33.406,3.66842105 33.344,3.91105263 33.2375,4.22210526 C33.132,4.51157895 33.027,4.84421053 32.9215,5.15368421 C32.838,5.48736842 32.7315,5.77578947 32.6695,6.06368421 C32.5845,6.35210526 32.5425,6.57526316 32.5425,6.72947368 C32.5425,6.84052632 32.5845,6.93 32.648,6.97421053 C32.7315,7.04052632 32.795,7.08473684 32.88,7.08473684 C32.985,7.08473684 33.0905,7.04052632 33.175,6.95105263 C33.2795,6.88473684 33.3645,6.79684211 33.4275,6.70736842 C33.5125,6.61894737 33.5745,6.52947368 33.638,6.46421053 C33.7015,6.39736842 33.723,6.35210526 33.7435,6.35210526 C33.785,6.35210526 33.785,6.37473684 33.785,6.41894737 C33.785,6.44157895 33.7435,6.52947368 33.6595,6.64157895 C33.5745,6.77368421 33.4695,6.90736842 33.344,7.01789474 C33.217,7.15157895 33.069,7.28526316 32.9215,7.37315789 C32.7735,7.48368421 32.626,7.55052632 32.4795,7.55052632 C32.416,7.55052632 32.332,7.52894737 32.2675,7.50684211 C32.2055,7.48368421 32.142,7.43947368 32.0785,7.39578947 C32.0155,7.35157895 31.9735,7.28526316 31.9305,7.19578947 C31.8885,7.12894737 31.868,7.04052632 31.868,6.95105263 C31.868,6.90736842 31.8885,6.79684211 31.9515,6.61894737 C31.9935,6.44157895 32.057,6.19736842 32.142,5.88631579 C32.247,5.59789474 32.332,5.24315789 32.4575,4.84473684 C32.563,4.42263158 32.711,3.97947368 32.838,3.46894737 L33.448,3.46894737 L33.448,3.46789474 Z M33.785,0.673157895 C33.8915,0.673157895 33.975,0.695789474 34.06,0.762631579 C34.1225,0.829473684 34.144,0.94 34.144,1.09473684 C34.144,1.25 34.102,1.38315789 34.039,1.49368421 C33.954,1.60473684 33.87,1.67105263 33.765,1.67105263 C33.638,1.67105263 33.5545,1.62736842 33.491,1.56052632 C33.4275,1.49368421 33.3855,1.38315789 33.3855,1.22842105 C33.3855,1.07210526 33.4275,0.94 33.5125,0.829473684 C33.5745,0.717368421 33.6595,0.673157895 33.785,0.673157895 Z" id="Shape"></path>
                <path d="M36.378,0.184736842 C36.2715,0.562105263 36.1465,0.94 36.0195,1.36105263 C35.914,1.76 35.7875,2.15947368 35.682,2.55894737 C35.5555,2.95842105 35.4285,3.33473684 35.323,3.68894737 C35.218,4.04421053 35.113,4.37789474 34.986,4.68789474 L35.0075,4.70947368 C35.0915,4.57631579 35.1765,4.44263158 35.2815,4.31052632 C35.387,4.15578947 35.5135,4.02210526 35.6405,3.91 C35.766,3.77789474 35.8925,3.66736842 36.041,3.60052632 C36.1665,3.51105263 36.293,3.46684211 36.42,3.46684211 C36.5885,3.46684211 36.736,3.53368421 36.8205,3.66736842 C36.926,3.77789474 36.9895,3.95578947 36.9895,4.17684211 C36.9895,4.39842105 36.946,4.64263158 36.884,4.90947368 C36.7995,5.15263158 36.694,5.41947368 36.5885,5.66368421 C36.462,5.90789474 36.315,6.15210526 36.1245,6.37368421 C35.956,6.59526316 35.7875,6.79578947 35.597,6.97315789 C35.4285,7.15052632 35.218,7.28421053 35.029,7.39473684 C34.839,7.48263158 34.6485,7.54947368 34.4585,7.54947368 C34.3545,7.54947368 34.248,7.50578947 34.186,7.46157895 C34.101,7.39473684 34.038,7.32789474 33.974,7.26105263 C33.9325,7.17315789 33.8905,7.10631579 33.869,7.01684211 C33.8275,6.95 33.8275,6.88368421 33.8275,6.83947368 C33.8275,6.81789474 33.8485,6.77263158 33.869,6.66210526 C33.8905,6.57421053 33.9325,6.46315789 33.974,6.32947368 C34.038,6.17368421 34.0795,6.01842105 34.143,5.84105263 C34.2065,5.64105263 34.2695,5.44210526 34.3115,5.24210526 C34.333,5.15263158 34.3965,4.97526316 34.48,4.66578947 C34.565,4.35473684 34.692,3.97789474 34.8175,3.51157895 C34.966,3.06842105 35.113,2.53631579 35.26,1.95894737 C35.4285,1.40473684 35.6185,0.806315789 35.7875,0.184210526 L36.378,0.184210526 L36.378,0.184736842 Z M34.4805,6.77315789 C34.4805,6.84 34.5025,6.90684211 34.544,6.95052632 C34.5655,7.01736842 34.6075,7.04 34.649,7.08421053 C34.713,7.12842105 34.7545,7.15105263 34.818,7.17368421 C34.861,7.19526316 34.923,7.21736842 34.9665,7.21736842 C35.0715,7.21736842 35.177,7.17368421 35.3035,7.06157895 C35.4085,6.95052632 35.514,6.81842105 35.619,6.64105263 C35.704,6.48526316 35.8095,6.28631579 35.893,6.08631579 C35.978,5.86473684 36.0415,5.66421053 36.1035,5.44263158 C36.167,5.24263158 36.2305,5.04368421 36.252,4.84368421 C36.2935,4.66631579 36.3155,4.51105263 36.3155,4.37789474 C36.3155,4.26578947 36.2935,4.15631579 36.2305,4.04421053 C36.1885,3.93315789 36.1035,3.88894737 36.02,3.88894737 C35.893,3.88894737 35.7665,3.93315789 35.641,4.04421053 C35.514,4.15631579 35.3875,4.28842105 35.282,4.46578947 C35.177,4.64315789 35.0715,4.82052632 34.9665,5.04368421 C34.861,5.26526316 34.776,5.48684211 34.713,5.68684211 C34.649,5.90842105 34.586,6.10842105 34.544,6.30736842 C34.5025,6.48526316 34.4805,6.64105263 34.4805,6.77315789 Z" id="Shape"></path>
                <path d="M38.253,3.60157895 L38.8435,3.60157895 L38.4015,5.06526316 L38.4215,5.08736842 C38.485,4.95421053 38.5485,4.77684211 38.632,4.59894737 C38.717,4.42157895 38.8225,4.24421053 38.9275,4.06684211 C39.034,3.91052632 39.1595,3.75578947 39.2865,3.64526316 C39.413,3.53421053 39.56,3.46736842 39.7085,3.46736842 C39.8555,3.46736842 39.981,3.53421053 40.066,3.64526316 C40.1715,3.75578947 40.2145,3.91052632 40.2145,4.11052632 C40.2145,4.17736842 40.2145,4.24421053 40.1925,4.33368421 C40.1925,4.39894737 40.1715,4.48842105 40.1295,4.55526316 C40.0875,4.59894737 40.066,4.66631579 40.0025,4.71 C39.961,4.75421053 39.8975,4.77684211 39.834,4.77684211 C39.7505,4.77684211 39.6655,4.73263158 39.602,4.66631579 C39.56,4.59894737 39.518,4.51105263 39.518,4.39894737 C39.518,4.33368421 39.54,4.28842105 39.56,4.22157895 C39.582,4.17736842 39.602,4.11052632 39.6235,4.06684211 C39.582,4.02263158 39.54,3.97842105 39.497,3.97842105 C39.4335,3.95631579 39.3715,3.95631579 39.328,3.95631579 C39.223,3.95631579 39.096,4.02263158 38.991,4.17736842 C38.8855,4.31105263 38.7805,4.48842105 38.675,4.71 C38.57,4.91 38.4635,5.15315789 38.3795,5.42 C38.2745,5.68684211 38.1905,5.95263158 38.126,6.21947368 C38.0425,6.48526316 37.979,6.70684211 37.9155,6.92947368 C37.874,7.12842105 37.832,7.30578947 37.8105,7.41684211 L37.263,7.41684211 L38.253,3.60157895 Z" id="Shape"></path>
                <path d="M40.635,6.30736842 C40.635,6.52894737 40.698,6.72894737 40.7815,6.88421053 C40.8665,7.01736842 41.014,7.08421053 41.2255,7.08421053 C41.331,7.08421053 41.436,7.06157895 41.541,7.01736842 C41.625,6.97368421 41.71,6.92947368 41.7935,6.86263158 C41.8785,6.79631579 41.942,6.72894737 42.0255,6.64105263 C42.089,6.55157895 42.1525,6.48526316 42.2155,6.41842105 C42.2575,6.39684211 42.2795,6.35157895 42.2795,6.33 C42.2995,6.30736842 42.321,6.28631579 42.321,6.28631579 C42.363,6.28631579 42.3845,6.30736842 42.3845,6.33 C42.3845,6.37421053 42.3425,6.44105263 42.2375,6.57473684 C42.1305,6.70684211 42.0255,6.84 41.857,6.99631579 C41.71,7.12842105 41.52,7.26157895 41.331,7.37263158 C41.1405,7.48315789 40.9305,7.55 40.74,7.55 C40.508,7.55 40.3395,7.46210526 40.192,7.30578947 C40.0655,7.15105263 40.002,6.95052632 40.002,6.66263158 C40.002,6.44105263 40.0455,6.21947368 40.1075,5.97526316 C40.171,5.70842105 40.276,5.48684211 40.3825,5.24263158 C40.508,5.02105263 40.635,4.79789474 40.7815,4.57684211 C40.9305,4.35526316 41.099,4.17736842 41.246,4 C41.4145,3.84526316 41.583,3.71157895 41.7515,3.62368421 C41.9,3.51157895 42.069,3.46736842 42.1945,3.46736842 C42.468,3.46736842 42.595,3.62368421 42.595,3.95631579 C42.595,4.17736842 42.5315,4.37789474 42.3845,4.55526316 C42.2575,4.73263158 42.089,4.88736842 41.9,5.02105263 C41.71,5.15315789 41.4995,5.24263158 41.3095,5.33210526 C41.099,5.42 40.9305,5.46421053 40.8035,5.50947368 C40.7615,5.62 40.72,5.75368421 40.698,5.90842105 C40.6565,6.06315789 40.635,6.19684211 40.635,6.30736842 M42.005,4.11105263 C42.005,4.02315789 41.9615,3.95684211 41.92,3.93368421 C41.878,3.88947368 41.8145,3.88947368 41.751,3.88947368 C41.646,3.88947368 41.5405,3.93368421 41.4355,4.04473684 C41.3505,4.15684211 41.267,4.28894737 41.182,4.44368421 C41.0985,4.59947368 41.035,4.75473684 40.9715,4.91052632 C40.93,5.08789474 40.888,5.22157895 40.845,5.30947368 C40.95,5.28736842 41.0565,5.24315789 41.2035,5.17631579 C41.3305,5.08789474 41.456,4.99894737 41.5625,4.88789474 C41.688,4.77736842 41.793,4.66684211 41.878,4.53315789 C41.9615,4.39947368 42.005,4.24473684 42.005,4.11105263" id="Shape"></path>
            </g>
            <g id="Group">
                <path d="M15.7157053,24.277 C15.3751579,23.94 15.1412211,23.729 15.0558316,23.6025 L13.5228632,22.127 C12.6492632,21.284 11.4997895,20.041 10.0936421,18.397 C8.66677895,16.7535 7.53802105,15.3835 6.72858947,14.2665 C6.06821053,13.36 5.51494737,12.918 5.04606316,12.918 C4.34324211,12.918 3.64092632,13.403 2.9376,14.3935 C2.21406316,15.3835 1.85178947,16.606 1.85178947,18.06 C1.85178947,19.831 2.46972632,21.5375 3.70458947,23.16 C5.40884211,25.373 7.58046316,26.469 10.2204632,26.469 C12.4148211,26.4685 14.2464,25.7515 15.7157053,24.277 M18.2713263,22.865 C21.4650947,25.941 23.7867789,27.4585 25.2136421,27.4585 C26.1716211,27.4585 26.2782316,27.185 26.4060632,27.1645 C26.5763368,27.1645 25.8098526,28.745 23.4462316,28.745 C22.3811368,28.745 21.4019368,28.513 20.5283368,28.049 C19.6552421,27.585 18.3779368,26.6155 16.7166316,25.162 C14.3530105,27.5655 11.8615579,28.745 9.24227368,28.745 C6.58004211,28.745 4.36547368,27.8805 2.61978947,26.1315 C0.873094737,24.403 0,22.2115 0,19.556 C0,17.3645 0.6816,15.51 2.02307368,13.993 C2.74661053,13.129 3.78997895,12.5175 5.13145263,12.1595 C4.17347368,10.7475 3.70458947,9.378 3.70458947,8.0075 C3.70458947,6.5745 4.17347368,5.3945 5.13145263,4.509 C6.08993684,3.6035 7.34602105,3.1605 8.90071579,3.1605 C9.68842105,3.1605 10.5190737,3.3505 11.3921684,3.7295 C11.3921684,3.7295 12.2228211,4.0875 12.3289263,4.13 C12.4138105,4.1935 12.4355368,4.2775 12.4355368,4.2775 L13.1383579,8.218 C13.1383579,8.218 13.1383579,8.3655 13.0741895,8.2595 C12.7765895,7.712 11.7756632,6.0045 11.0086737,5.373 C10.0719158,4.593 9.17709474,4.214 8.28277895,4.214 C7.53701053,4.214 6.87713684,4.467 6.34509474,4.9935 C5.81204211,5.521 5.55637895,6.1525 5.55637895,6.8905 C5.55637895,7.5855 5.79082105,8.3865 6.30214737,9.2715 C6.81296842,10.157 7.64362105,11.295 8.85726316,12.7065 L12.8826947,17.4485 C13.9477895,18.692 15.4170947,20.23 17.3547789,22.106 C17.8656,21.052 18.1424842,19.872 18.1424842,18.565 C18.1424842,17.617 17.9509895,16.8165 17.6311579,16.163 C16.8222316,14.4135 15.0548211,14.498 15.0548211,14.498 C15.0548211,14.498 15.1179789,14.0975 15.4590316,14.0975 C15.5439158,14.0975 15.6510316,14.0975 15.8425263,14.14 C16.1623579,14.1815 17.0991158,14.2025 18.6533053,14.2025 C19.1434105,14.2025 19.5900632,14.1815 19.9952842,14.14 C20.3787789,14.0975 20.6556632,14.0765 20.8047158,14.0765 C20.9962105,14.0765 21.1235368,14.371 21.1235368,14.371 C21.1235368,14.371 20.1655579,14.5185 19.9740632,15.5725 C19.9098947,15.9305 19.7396211,16.5415 19.6754526,17.448 C19.5279158,19.5145 19.0378105,21.305 18.2713263,22.865" id="Shape"></path>
                <path d="M77.5584,11.6745 L78.8776421,11.6745 L78.8776421,1.496 L88.0779789,11.6745 L89.4831158,11.6745 L89.4831158,0.274 L88.0779789,0.274 L88.0779789,9.6515 L79.5390316,0.274 L77.5584,0.274 L77.5584,11.6745 Z M61.5016421,11.6745 L62.8208842,11.6745 L62.8208842,1.496 L72.0419368,11.6745 L73.4263579,11.6745 L73.4263579,0.274 L72.0419368,0.274 L72.0419368,9.6515 L63.4817684,0.274 L61.5016421,0.274 L61.5016421,11.6745 Z M45.0826105,11.6745 L46.6368,11.6745 L48.1278316,8.7035 L55.5597474,8.7035 L57.0507789,11.6745 L58.6261895,11.6745 L52.7065263,0.274 L51.0027789,0.274 L45.0826105,11.6745 Z M48.7659789,7.481 L51.8541474,1.3485 L54.9423158,7.481 L48.7659789,7.481 Z M32.0281263,11.6745 L33.3696,11.6745 L36.1808842,2.381 L36.2021053,2.381 L39.0128842,11.6745 L40.3543579,11.6745 L43.9321263,0.274 L42.4628211,0.274 L39.7152,9.462 L39.6732632,9.462 L36.8195368,0.274 L35.4987789,0.274 L32.6667789,9.525 L32.6238316,9.525 L29.8984421,0.274 L28.4296421,0.274 L32.0281263,11.6745 Z M14.5227789,9.3145 C15.5024842,10.3895 16.8869053,11.9485 20.6561684,11.9485 C24.5739789,11.9485 26.4485053,10.3685 26.4485053,8.451 C26.4485053,3.351 16.3973053,6.6385 16.3973053,3.1825 C16.3973053,1.749 18.0368842,1.159 20.3363368,1.159 C23.4876632,1.159 24.5952,2.6135 25.0635789,3.14 L26.0857263,2.318 C25.2778105,1.222 23.4250105,0 20.3797895,0 C17.2491789,0 14.9704421,0.969 14.9704421,3.4135 C14.9704421,8.029 25.0221474,4.994 25.0221474,8.4505 C25.0221474,10.2205 22.5943579,10.7265 20.8269474,10.7265 C17.3770105,10.7265 16.2694737,9.272 15.5878737,8.408 L14.5227789,9.3145 Z" id="Shape"></path>
                <path d="M84.4577684,25.5625 L85.8639158,25.5625 L85.8639158,20.5255 L90.3779368,20.5255 L94.0835368,25.562 L95.8292211,25.562 L91.9968,20.483 C93.4019368,20.4205 95.6165053,19.746 95.6165053,17.3435 C95.6165053,14.562 92.9340632,14.182 91.1024842,14.182 L84.4577684,14.182 L84.4577684,25.5625 Z M85.8639158,15.405 L90.8038737,15.405 C92.8057263,15.405 94.2967579,15.679 94.2967579,17.344 C94.2967579,19.009 92.8057263,19.3035 90.8038737,19.3035 L85.8639158,19.3035 L85.8639158,15.405 Z M68.0397474,25.5625 L69.5934316,25.5625 L71.0839579,22.6125 L78.5158737,22.6125 L80.0064,25.5625 L81.5610947,25.5625 L75.6626526,14.1825 L73.9594105,14.1825 L68.0397474,25.5625 Z M71.7236211,21.3895 L74.8112842,15.257 L77.8994526,21.3895 L71.7236211,21.3895 Z M64.8232421,21.9375 C63.8652632,23.687 62.2893474,24.635 60.0106105,24.635 C56.5177263,24.635 54.7301053,22.6755 54.7301053,20.062 C54.7301053,16.8175 56.5824,15.0465 59.8827789,15.0465 C62.0756211,15.0465 63.8652632,15.827 64.6741895,17.702 L65.8883368,17.1545 C64.8444632,14.836 62.3312842,13.888 59.8605474,13.888 C55.9846737,13.888 53.3017263,15.974 53.3017263,19.8935 C53.3017263,23.2025 55.4112,25.858 59.8822737,25.858 C62.6935579,25.858 64.8227368,24.9095 66.0591158,22.549 L64.8232421,21.9375 Z M38.8426105,23.223 C39.8223158,24.298 41.2067368,25.858 44.976,25.858 C48.8943158,25.858 50.7683368,24.277 50.7683368,22.3595 C50.7683368,17.239 40.7166316,20.526 40.7166316,17.091 C40.7166316,15.6365 42.3567158,15.0465 44.6778947,15.0465 C47.808,15.0465 48.9155368,16.501 49.3839158,17.0485 L50.4055579,16.227 C49.5961263,15.1305 47.7438316,13.888 44.6986105,13.888 C41.5685053,13.888 39.2892632,14.878 39.2892632,17.3015 C39.2892632,21.938 49.3409684,18.882 49.3409684,22.3595 C49.3409684,24.13 46.9131789,24.6355 45.1462737,24.6355 C41.6963368,24.6355 40.5888,23.1815 39.9072,22.2965 L38.8426105,23.223 Z M24.4042105,19.683 C24.4042105,17.1545 26.3848421,15.0465 29.7281684,15.0465 C33.072,15.0465 35.0309053,17.1545 35.0309053,19.683 C35.0309053,23.16 32.5177263,24.635 29.7281684,24.635 C26.8961684,24.635 24.4042105,23.1595 24.4042105,19.683 Z M22.9773474,19.936 C22.9773474,23.982 26.4065684,25.858 29.7281684,25.858 C33.0497684,25.858 36.4577684,23.982 36.4577684,19.936 C36.4577684,16.143 33.6252632,13.888 29.7281684,13.888 C25.8098526,13.8875 22.9773474,16.1425 22.9773474,19.936 Z" id="Shape"></path>
            </g>
        </g>
    </g>
</svg>