<?xml version="1.0" encoding="UTF-8"?>
<svg width="58px" height="66px" viewBox="0 0 58 66" version="1.1" xmlns="http://www.w3.org/2000/svg" xmlns:xlink="http://www.w3.org/1999/xlink">
    <!-- Generator: Sketch 48.2 (47327) - http://www.bohemiancoding.com/sketch -->
    <title>ic-watch</title>
    <desc>Created with Sketch.</desc>
    <defs></defs>
    <g id="Page-1" stroke="none" stroke-width="1" fill="none" fill-rule="evenodd">
        <g id="ic-watch" fill="#3A3A3A" fill-rule="nonzero">
            <path d="M52.19293,30 C51.5656572,25.8963939 49.9540732,22.0056933 47.49593,18.66046 L51.24849,14.9082 L45.5918,9.251 L41.83814,13.005 C41.0867285,12.4568646 40.3062075,11.9497901 39.5,11.486 L39.5,5 L36.24414,0 L16.75586,0 L13.542,4.71289 L13.5354,11.46631 C5.47350327,16.1002295 0.50137926,24.6880244 0.496580694,33.9868074 C0.491782128,43.2855904 5.45504016,51.8785124 13.51215,56.52075 L13.542,66 L39.5,66 L39.5,56.514 C40.3061851,56.0501708 41.0867225,55.5431252 41.8382,54.99508 L45.5918,58.749 L51.24854,53.09177 L47.496,49.33954 C49.9541183,45.9942999 51.565678,42.1035998 52.19293,38 L57.5,38 L57.5,30 L52.19293,30 Z M55.5,36 L52.41693,36 C52.46704,35.3374 52.5,34.67145 52.5,34 C52.5,33.32855 52.467,32.6626 52.41693,32 L55.5,32 L55.5,36 Z M43.41052,53.73926 C43.91369,53.30762 44.40832,52.86115 44.88476,52.38477 C45.35949,51.91004 45.80712,51.41584 46.24017,50.91193 L48.42041,53.0918 L45.5918,55.9209 L43.41052,53.73926 Z M40.38678,53.54354 C40.09204,53.75313 39.80188,53.96993 39.5,54.16463 C38.848,54.5851633 38.1813333,54.9715967 37.5,55.32393 C30.5944791,58.8664102 22.4055209,58.8664102 15.5,55.32393 C14.82306,54.97542 14.16119,54.58968 13.51337,54.17256 C6.63595718,49.764791 2.47810015,42.1568294 2.48231227,33.9881566 C2.48652438,25.8194837 6.65222517,18.215814 13.53418,13.81514 C14.17554,13.40314 14.83018,13.02101 15.5,12.67614 C22.40308,9.12356831 30.59692,9.12356831 37.5,12.67614 C38.18152,13.0270933 38.8481867,13.4135067 39.5,13.83538 C39.80188,14.03002 40.0921,14.24688 40.38678,14.45638 C41.4838592,15.2254928 42.5144891,16.0852771 43.46783,17.02669 C44.4205534,17.9822279 45.2850473,19.0058095 46.06085,20.09535 C48.1662353,23.0405966 49.5695802,26.4286537 50.16339,30 C50.6122018,32.6477824 50.6122018,35.3522176 50.16339,38 C49.5695728,41.5713289 48.1662283,44.9593681 46.06085,47.9046 C45.2852216,48.9939086 44.4209362,50.017285 43.47681,50.96429 C42.514257,51.9148157 41.4837296,52.7744945 40.38678,53.54354 Z M45.5918,12.07907 L48.42041,14.90817 L46.24017,17.08804 C45.80717,16.58413 45.35949,16.08993 44.88476,15.6152 C44.40838,15.13882 43.91369,14.69229 43.41052,14.26071 L45.5918,12.07907 Z M15.5,5.14648 L18.24414,2 L34.75586,2 L37.5,5.14648 L37.5,10.44165 C30.5238902,7.20459011 22.4761098,7.20459011 15.5,10.44165 L15.5,5.14648 Z M37.5,64.5 L15.5,64.5 L15.5,57.55835 C22.4757684,60.7969564 30.5242316,60.7969564 37.5,57.55835 L37.5,64.5 Z" id="Shape"></path>
            <path d="M39.5,17.53931 C38.8607849,17.0365096 38.1930013,16.5711312 37.5,16.14551 C30.7663165,11.9514991 22.2336835,11.9514991 15.5,16.14551 C9.29326522,19.956201 5.51088072,26.7168155 5.51088072,34.00001 C5.51088072,41.2832045 9.29326522,48.043819 15.5,51.85451 C22.2336835,56.0485209 30.7663165,56.0485209 37.5,51.85451 C43.3439005,48.2745 47.0657751,42.0610807 47.4645306,35.2193968 C47.863286,28.3777128 44.8884359,21.7739869 39.5,17.53932 L39.5,17.53931 Z M45.5,34 C45.4978166,39.2378493 43.3255658,44.2406949 39.5,47.81842 C38.8712604,48.4111974 38.2030621,48.9606736 37.5,49.46307 C30.9248393,54.178972 22.0751607,54.178972 15.5,49.46307 C14.8031284,48.9649164 14.1405037,48.4205178 13.5166,47.83355 C6.21275973,41.0092777 5.45697063,29.6885451 11.7888379,21.9539325 C18.1207051,14.2193199 29.3677489,12.7245925 37.5,18.53693 C38.2030621,19.0393264 38.8712604,19.5888026 39.5,20.18158 C43.3255658,23.7593051 45.4978166,28.7621507 45.5,34 Z" id="Shape"></path>
            <polygon id="Shape" points="27.5 18 25.5 18 25.5 34.376 32.748 42.658 34.252 41.342 27.5 33.624"></polygon>
        </g>
    </g>
</svg>