<?xml version="1.0" encoding="UTF-8"?>
<svg width="222px" height="355px" viewBox="0 0 222 355" version="1.1" xmlns="http://www.w3.org/2000/svg" xmlns:xlink="http://www.w3.org/1999/xlink">
    <!-- Generator: Sketch 48.2 (47327) - http://www.bohemiancoding.com/sketch -->
    <title>ic-body</title>
    <desc>Created with Sketch.</desc>
    <defs></defs>
    <g id="Page-1" stroke="none" stroke-width="1" fill="none" fill-rule="evenodd">
        <g id="ic-body" transform="translate(1.000000, 1.000000)" stroke-width="1.5">
            <path d="M110,71 C123.254834,71 134,55.1061086 134,35.5 C135.5,7.5 123.254834,0 110,0 C96.745166,0 86,5 86,35.5 C86,55.1061086 96.745166,71 110,71 Z" id="Oval-5" stroke="#000000"></path>
            <path d="M98.5,67 C99.1666667,79.3333333 92.6666667,85.6666667 79,86 C58.5,86.5 42,84 37,121 C33.6666667,145.666667 29.1666667,165 23.5,179 C14.1666667,206 9.33333333,222.166667 9,227.5 C8.5,235.5 7,249.5 7,253 C7,256.5 2,264.5 1,273 C2.27373675e-13,281.5 1,290.5 4,295 C7,299.5 11,303 14.5,303.5 C18,304 19,302.5 17.5,300 C16,297.5 10.5,292 11,286.5 C11.5,281 16,267.5 17.5,273 C19,278.5 26.5,283.5 26,277.5 C25.5,271.5 17.5,258.5 26,241.5 C34.5,224.5 36,217 39.5,206.5 C41.8333333,199.5 46.3333333,187.666667 53,171 L63,135.5 C63,143.166667 63,149.666667 63,155 C63,163 64.5,168.5 66,175.5 C67.5,182.5 68,199 67.5,206.5 C67,214 66.5,226 63,234 C59.5,242 56,261 56.5,288.5 C56.8333333,306.833333 57.3333333,319.166667 58,325.5 C57.6666667,330.166667 60.3333333,332.833333 66,333.5 C71.6666667,334.166667 85.5,335.166667 107.5,336.5 L110.5,296" id="Path-13" stroke="#000000"></path>
            <path d="M208.375,67 C209.041667,79.3333333 202.541667,85.6666667 188.875,86 C168.375,86.5 151.875,84 146.875,121 C143.541667,145.666667 139.041667,165 133.375,179 C124.041667,206 119.208333,222.166667 118.875,227.5 C118.375,235.5 116.875,249.5 116.875,253 C116.875,256.5 111.875,264.5 110.875,273 C109.875,281.5 110.875,290.5 113.875,295 C116.875,299.5 120.875,303 124.375,303.5 C127.875,304 128.875,302.5 127.375,300 C125.875,297.5 120.375,292 120.875,286.5 C121.375,281 125.875,267.5 127.375,273 C128.875,278.5 136.375,283.5 135.875,277.5 C135.375,271.5 127.375,258.5 135.875,241.5 C144.375,224.5 145.875,217 149.375,206.5 C151.708333,199.5 156.208333,187.666667 162.875,171 L172.875,135.5 C172.875,143.166667 172.875,149.666667 172.875,155 C172.875,163 174.375,168.5 175.875,175.5 C177.375,182.5 177.875,199 177.375,206.5 C176.875,214 176.375,226 172.875,234 C169.375,242 165.875,261 166.375,288.5 C166.708333,306.833333 167.208333,319.166667 167.875,325.5 C167.541667,330.166667 170.208333,332.833333 175.875,333.5 C181.541667,334.166667 195.375,335.166667 217.375,336.5 L219.375,296" id="Path-13-Copy" stroke="#000000" transform="translate(164.937500, 201.750000) scale(-1, 1) translate(-164.937500, -201.750000) "></path>
            <g id="mesures" transform="translate(7.000000, 78.000000)" stroke="#653393">
                <g id="cou" transform="translate(89.000000, 0.000000)">
                    <path d="M0,2 C0.666666667,4.33333333 5.41666667,5.5 14.25,5.5 C23.0833333,5.5 27.8333333,4.33333333 28.5,2" id="Path-15"></path>
                    <path d="M0,0 C2,1.66666667 6.75,2.5 14.25,2.5 C21.75,2.5 26.5,1.66666667 28.5,0" id="Path-15-Copy" opacity="0.312047101" transform="translate(14.250000, 1.250000) scale(1, -1) translate(-14.250000, -1.250000) "></path>
                </g>
                <g id="Torse" transform="translate(56.000000, 51.000000)">
                    <path d="M0,3 C2.19883041,6.33333333 17.8654971,8 47,8 C76.1345029,8 91.8011696,6.33333333 94,3" id="Path-15"></path>
                    <path d="M0,0 C6.59649123,2 22.2631579,3 47,3 C71.7368421,3 87.4035088,2 94,0" id="Path-15-Copy" opacity="0.312047101" transform="translate(47.000000, 1.500000) scale(1, -1) translate(-47.000000, -1.500000) "></path>
                </g>
                <g id="taille" transform="translate(60.000000, 133.000000)">
                    <path d="M0,3 C2.01169591,6.33333333 16.3450292,8 43,8 C69.6549708,8 83.9883041,6.33333333 86,3" id="Path-15"></path>
                    <path d="M0,0 C6.03508772,2 20.3684211,3 43,3 C65.6315789,3 79.9649123,2 86,0" id="Path-15-Copy" opacity="0.312047101" transform="translate(43.000000, 1.500000) scale(1, -1) translate(-43.000000, -1.500000) "></path>
                </g>
                <g id="taille-copy" transform="translate(50.000000, 186.000000)">
                    <path d="M0,3 C2.45614035,6.33333333 19.9561404,8 52.5,8 C85.0438596,8 102.54386,6.33333333 105,3" id="Path-15"></path>
                    <path d="M0,0 C7.36842105,2 24.8684211,3 52.5,3 C80.1315789,3 97.6315789,2 105,0" id="Path-15-Copy" opacity="0.312047101" transform="translate(52.500000, 1.500000) scale(1, -1) translate(-52.500000, -1.500000) "></path>
                </g>
                <g id="poignet" transform="translate(0.000000, 174.000000)">
                    <path d="M0,1 C0.350877193,3 2.85087719,4 7.5,4 C12.1491228,4 14.6491228,3 15,1" id="Path-15"></path>
                    <path d="M0,0 C1.05263158,0.666666667 3.55263158,1 7.5,1 C11.4473684,1 13.9473684,0.666666667 15,0" id="Path-15-Copy" opacity="0.312047101" transform="translate(7.500000, 0.500000) scale(1, -1) translate(-7.500000, -0.500000) "></path>
                </g>
                <g id="poignet-copy" transform="translate(192.000000, 178.000000)">
                    <path d="M0,1 C0.350877193,3 2.85087719,4 7.5,4 C12.1491228,4 14.6491228,3 15,1" id="Path-15"></path>
                    <path d="M0,0 C1.05263158,0.666666667 3.55263158,1 7.5,1 C11.4473684,1 13.9473684,0.666666667 15,0" id="Path-15-Copy" opacity="0.312047101" transform="translate(7.500000, 0.500000) scale(1, -1) translate(-7.500000, -0.500000) "></path>
                </g>
            </g>
            <path d="M60,244.5 C68,247.166667 85,248.5 111,248.5 C137,248.5 153.5,247.333333 160.5,245" id="Path-14" stroke="#000000"></path>
            <g id="jamb" transform="translate(62.000000, 333.000000)" stroke="#000000">
                <polyline id="Path-16" points="1.5 0 1.5 14.9667969 1.5 20"></polyline>
                <path d="M43.5,4 L42,20.5" id="Path-16-Copy"></path>
            </g>
            <g id="jamb-copy" transform="translate(137.000000, 343.500000) scale(-1, 1) translate(-137.000000, -343.500000) translate(115.000000, 333.000000)" stroke="#000000">
                <polyline id="Path-16" points="1.5 0 1.5 14.9667969 1.5 20"></polyline>
                <path d="M43.5,4 L42,20.5" id="Path-16-Copy"></path>
            </g>
            <path d="M100,13.5 C102.666667,17.8333333 107.166667,20 113.5,20 C119.833333,20 126.166667,20.1666667 132.5,20.5" id="Path-17" stroke="#000000"></path>
        </g>
    </g>
</svg>